<?xml version="1.0" encoding="UTF-8"?>
<!DOCTYPE svg PUBLIC "-//W3C//DTD SVG 1.1//EN" "http://www.w3.org/Graphics/SVG/1.1/DTD/svg11.dtd">
<svg xmlns="http://www.w3.org/2000/svg" version="1.1" width="500px" height="15px" style="shape-rendering:geometricPrecision; text-rendering:geometricPrecision; image-rendering:optimizeQuality; fill-rule:evenodd; clip-rule:evenodd" xmlns:xlink="http://www.w3.org/1999/xlink">
<g><path style="opacity:1" fill="#fdfdfd" d="M -0.5,-0.5 C 166.167,-0.5 332.833,-0.5 499.5,-0.5C 499.5,48.1667 499.5,96.8333 499.5,145.5C 332.833,145.5 166.167,145.5 -0.5,145.5C -0.5,96.8333 -0.5,48.1667 -0.5,-0.5 Z"/></g>
<g><path style="opacity:1" fill="#ccb385" d="M 102.5,2.5 C 130.945,11.4261 159.279,20.7594 187.5,30.5C 193.247,22.6738 198.747,14.6738 204,6.5C 207.69,2.34801 209.69,3.01468 210,8.5C 204.338,15.8213 199.171,23.488 194.5,31.5C 199.942,33.9266 205.442,36.2599 211,38.5C 211.667,73.1667 211.667,107.833 211,142.5C 164.567,143.83 118.067,143.83 71.5,142.5C 70.3417,113.209 70.175,83.8755 71,54.5C 81.0842,53.5139 91.2509,53.1806 101.5,53.5C 101.182,36.423 101.515,19.423 102.5,2.5 Z"/></g>
<g><path style="opacity:1" fill="#fefefe" d="M 107.5,9.5 C 133.285,17.7618 158.952,26.4285 184.5,35.5C 169.29,58.0867 153.957,80.5867 138.5,103C 128.172,103.5 117.839,103.666 107.5,103.5C 107.5,88.8333 107.5,74.1667 107.5,59.5C 116.192,59.1686 124.859,59.502 133.5,60.5C 138.496,67.0447 143.663,67.0447 149,60.5C 150.877,53.3757 148.21,49.0424 141,47.5C 137.581,47.7927 135.081,49.4593 133.5,52.5C 124.859,53.498 116.192,53.8314 107.5,53.5C 107.5,38.8333 107.5,24.1667 107.5,9.5 Z"/></g>
<g><path style="opacity:1" fill="#010101" d="M 366.5,22.5 C 367.5,22.5 368.5,22.5 369.5,22.5C 369.5,35.5 369.5,48.5 369.5,61.5C 368.5,61.5 367.5,61.5 366.5,61.5C 366.5,48.5 366.5,35.5 366.5,22.5 Z"/></g>
<g><path style="opacity:1" fill="#101010" d="M 247.5,33.5 C 247.291,32.0783 246.791,30.745 246,29.5C 245.5,40.1615 245.333,50.8281 245.5,61.5C 244.5,61.5 243.5,61.5 242.5,61.5C 242.333,49.1622 242.5,36.8288 243,24.5C 244.938,23.1398 246.604,23.4732 248,25.5C 251.667,35.8333 255.333,46.1667 259,56.5C 262.975,45.5715 267.142,34.7382 271.5,24C 272.793,23.51 274.127,23.3433 275.5,23.5C 275.5,36.1667 275.5,48.8333 275.5,61.5C 274.5,61.5 273.5,61.5 272.5,61.5C 272.666,51.1613 272.5,40.828 272,30.5C 268.667,39.8333 265.333,49.1667 262,58.5C 260.749,61.8163 259.082,62.1496 257,59.5C 253.923,50.7665 250.756,42.0999 247.5,33.5 Z"/></g>
<g><path style="opacity:1" fill="#171717" d="M 330.5,23.5 C 335.511,23.3341 340.511,23.5007 345.5,24C 352.11,26.2077 354.276,30.7077 352,37.5C 351.07,39.5524 349.57,41.0524 347.5,42C 353.234,45.1801 355.067,50.0134 353,56.5C 351.891,58.8147 350.057,60.3147 347.5,61C 341.584,61.8072 335.75,61.6406 330,60.5C 329.188,48.0911 329.355,35.7577 330.5,23.5 Z"/></g>
<g><path style="opacity:1" fill="#f9f9f9" d="M 333.5,26.5 C 337.182,26.3347 340.848,26.5014 344.5,27C 351.167,31.3333 351.167,35.6667 344.5,40C 340.848,40.4986 337.182,40.6653 333.5,40.5C 333.5,35.8333 333.5,31.1667 333.5,26.5 Z"/></g>
<g><path style="opacity:1" fill="#949494" d="M 247.5,33.5 C 246.833,42.8333 246.167,52.1667 245.5,61.5C 245.333,50.8281 245.5,40.1615 246,29.5C 246.791,30.745 247.291,32.0783 247.5,33.5 Z"/></g>
<g><path style="opacity:1" fill="#171717" d="M 285.5,34.5 C 287.124,34.3601 288.29,35.0267 289,36.5C 291.333,43.5 293.667,50.5 296,57.5C 298.33,50.5109 300.663,43.5109 303,36.5C 303.71,35.0267 304.876,34.3601 306.5,34.5C 303.108,47.8455 298.442,60.6788 292.5,73C 288.716,74.3098 286.382,73.1431 285.5,69.5C 287.226,69.8146 288.893,69.9813 290.5,70C 292.207,67.5615 293.541,64.8948 294.5,62C 291.389,52.835 288.389,43.6683 285.5,34.5 Z"/></g>
<g><path style="opacity:1" fill="#161616" d="M 387.5,33.5 C 400.615,33.7985 405.782,40.4652 403,53.5C 399.02,62.0793 392.853,64.2459 384.5,60C 376.996,50.0273 377.996,41.194 387.5,33.5 Z"/></g>
<g><path style="opacity:1" fill="#121212" d="M 417.5,33.5 C 422.42,32.8808 426.253,34.5474 429,38.5C 429.49,37.2068 429.657,35.8734 429.5,34.5C 430.5,34.5 431.5,34.5 432.5,34.5C 432.666,44.8387 432.5,55.172 432,65.5C 429.895,70.8932 425.895,73.5599 420,73.5C 416.083,73.645 413.583,71.9783 412.5,68.5C 423.78,73.1241 429.28,69.4574 429,57.5C 421.691,64.8375 415.691,63.8375 411,54.5C 410.333,49.8333 410.333,45.1667 411,40.5C 412.694,37.6424 414.861,35.309 417.5,33.5 Z"/></g>
<g><path style="opacity:1" fill="#fefefe" d="M 189.5,37.5 C 194.882,38.6272 200.216,39.9606 205.5,41.5C 205.5,73.5 205.5,105.5 205.5,137.5C 162.5,137.5 119.5,137.5 76.5,137.5C 76.5,111.5 76.5,85.5 76.5,59.5C 84.8333,59.5 93.1667,59.5 101.5,59.5C 101.333,75.5035 101.5,91.5035 102,107.5C 102.5,108 103,108.5 103.5,109C 116.167,109.667 128.833,109.667 141.5,109C 157.634,85.2242 173.634,61.3909 189.5,37.5 Z"/></g>
<g><path style="opacity:1" fill="#f4f4f4" d="M 388.5,36.5 C 394.308,35.6519 398.142,37.9852 400,43.5C 401.879,50.1013 400.046,55.268 394.5,59C 389.806,60.3104 386.306,58.8104 384,54.5C 381.147,47.253 382.647,41.253 388.5,36.5 Z"/></g>
<g><path style="opacity:1" fill="#f8f8f8" d="M 418.5,36.5 C 428.154,37.4235 431.654,42.7569 429,52.5C 427.496,58.0191 423.996,60.1857 418.5,59C 413.848,54.4643 412.348,48.9643 414,42.5C 415.332,40.34 416.832,38.34 418.5,36.5 Z"/></g>
<g><path style="opacity:1" fill="#f7f7f7" d="M 333.5,43.5 C 339.024,42.8983 344.19,43.8983 349,46.5C 351.789,51.6606 350.623,55.494 345.5,58C 341.514,58.4988 337.514,58.6655 333.5,58.5C 333.5,53.5 333.5,48.5 333.5,43.5 Z"/></g>
<g><path style="opacity:1" fill="#cbb487" d="M 235.5,82.5 C 304.82,84.0255 374.153,84.8588 443.5,85C 374.153,85.1412 304.82,85.9745 235.5,87.5C 235.5,85.8333 235.5,84.1667 235.5,82.5 Z"/></g>
<g><path style="opacity:1" fill="#616161" d="M 249.5,103.5 C 245.154,103.334 240.821,103.501 236.5,104C 238.382,104.198 240.048,104.698 241.5,105.5C 239.5,105.5 237.5,105.5 235.5,105.5C 235.5,104.5 235.5,103.5 235.5,102.5C 240.363,102.181 245.03,102.514 249.5,103.5 Z"/></g>
<g><path style="opacity:1" fill="#656565" d="M 471.5,103.5 C 467.154,103.334 462.821,103.501 458.5,104C 460.382,104.198 462.048,104.698 463.5,105.5C 461.5,105.5 459.5,105.5 457.5,105.5C 457.5,104.5 457.5,103.5 457.5,102.5C 462.363,102.181 467.03,102.514 471.5,103.5 Z"/></g>
<g><path style="opacity:1" fill="#0d0d0d" d="M 249.5,103.5 C 248.082,105.308 246.082,105.975 243.5,105.5C 242.833,133.5 242.167,133.5 241.5,105.5C 240.048,104.698 238.382,104.198 236.5,104C 240.821,103.501 245.154,103.334 249.5,103.5 Z"/></g>
<g><path style="opacity:1" fill="#a0a0a0" d="M 254.5,103.5 C 252.535,110.76 251.868,118.427 252.5,126.5C 251.508,118.684 251.174,110.684 251.5,102.5C 252.791,102.263 253.791,102.596 254.5,103.5 Z"/></g>
<g><path style="opacity:1" fill="#010101" d="M 254.5,103.5 C 254.5,106.5 254.5,109.5 254.5,112.5C 257.5,112.5 260.5,112.5 263.5,112.5C 264.166,109.642 264.833,106.642 265.5,103.5C 266.497,111.138 266.831,118.804 266.5,126.5C 265.833,126.5 265.167,126.5 264.5,126.5C 264.5,122.5 264.5,118.5 264.5,114.5C 260.958,114.187 257.625,114.521 254.5,115.5C 255.08,119.649 254.414,123.316 252.5,126.5C 251.868,118.427 252.535,110.76 254.5,103.5 Z"/></g>
<g><path style="opacity:1" fill="#cccccc" d="M 266.5,126.5 C 266.831,118.804 266.497,111.138 265.5,103.5C 264.833,106.642 264.166,109.642 263.5,112.5C 263.5,109.167 263.5,105.833 263.5,102.5C 264.833,102.5 266.167,102.5 267.5,102.5C 267.826,110.684 267.492,118.684 266.5,126.5 Z"/></g>
<g><path style="opacity:1" fill="#6e6e6e" d="M 271.5,103.5 C 272.919,102.549 274.585,102.216 276.5,102.5C 276.826,110.684 276.492,118.684 275.5,126.5C 275.5,118.833 275.5,111.167 275.5,103.5C 274.167,103.5 272.833,103.5 271.5,103.5 Z"/></g>
<g><path style="opacity:1" fill="#0f0f0f" d="M 295.5,103.5 C 297.465,110.76 298.132,118.427 297.5,126.5C 296.504,126.586 295.671,126.252 295,125.5C 291.823,120.472 288.656,115.472 285.5,110.5C 285.217,109.711 284.717,109.044 284,108.5C 283.501,114.491 283.334,120.491 283.5,126.5C 282.176,122.893 281.509,118.893 281.5,114.5C 281.833,110.5 282.167,106.5 282.5,102.5C 286.901,108.288 291.067,114.288 295,120.5C 295.499,114.843 295.666,109.176 295.5,103.5 Z"/></g>
<g><path style="opacity:1" fill="#818181" d="M 295.5,103.5 C 296.209,102.596 297.209,102.263 298.5,102.5C 298.826,110.684 298.492,118.684 297.5,126.5C 298.132,118.427 297.465,110.76 295.5,103.5 Z"/></g>
<g><path style="opacity:1" fill="#131313" d="M 303.5,102.5 C 305.25,105.355 306.083,108.689 306,112.5C 308.248,109.672 310.248,106.672 312,103.5C 313.049,102.483 314.216,102.316 315.5,103C 312.795,106.242 310.461,109.742 308.5,113.5C 311,117.167 313.5,120.833 316,124.5C 316.591,125.483 316.257,126.15 315,126.5C 311.972,123.132 309.306,119.466 307,115.5C 305.904,119.024 305.071,122.69 304.5,126.5C 303.502,118.528 303.169,110.528 303.5,102.5 Z"/></g>
<g><path style="opacity:1" fill="#969696" d="M 337.5,103.5 C 334.833,103.5 332.167,103.5 329.5,103.5C 329.5,111.167 329.5,118.833 329.5,126.5C 328.508,118.684 328.174,110.684 328.5,102.5C 331.713,102.19 334.713,102.523 337.5,103.5 Z"/></g>
<g><path style="opacity:1" fill="#1b1b1b" d="M 337.5,103.5 C 340.292,103.452 342.125,104.785 343,107.5C 343.667,112.5 343.667,117.5 343,122.5C 342.348,124.723 340.848,125.89 338.5,126C 335.518,126.498 332.518,126.665 329.5,126.5C 329.5,118.833 329.5,111.167 329.5,103.5C 332.167,103.5 334.833,103.5 337.5,103.5 Z"/></g>
<g><path style="opacity:1" fill="#050505" d="M 348.5,103.5 C 349.833,103.5 351.167,103.5 352.5,103.5C 352.5,111.167 352.5,118.833 352.5,126.5C 351.045,119.044 349.712,111.377 348.5,103.5 Z"/></g>
<g><path style="opacity:1" fill="#a2a2a2" d="M 348.5,103.5 C 349.712,111.377 351.045,119.044 352.5,126.5C 352.5,118.833 352.5,111.167 352.5,103.5C 351.167,103.5 349.833,103.5 348.5,103.5 Z"/></g>
<g><path style="opacity:1" fill="#949494" d="M 369.5,103.5 C 365.833,103.5 362.167,103.5 358.5,103.5C 358.5,111.167 358.5,118.833 358.5,126.5C 357.508,118.684 357.174,110.684 357.5,102.5C 361.702,102.183 365.702,102.517 369.5,103.5 Z"/></g>
<g><path style="opacity:1" fill="#0e0e0e" d="M 369.5,103.5 C 367.012,105.388 364.012,106.055 360.5,105.5C 360.5,107.833 360.5,110.167 360.5,112.5C 367.167,113.167 367.167,113.833 360.5,114.5C 361.089,118.971 360.423,122.971 358.5,126.5C 358.5,118.833 358.5,111.167 358.5,103.5C 362.167,103.5 365.833,103.5 369.5,103.5 Z"/></g>
<g><path style="opacity:1" fill="#949494" d="M 384.5,103.5 C 380.833,103.5 377.167,103.5 373.5,103.5C 373.5,111.167 373.5,118.833 373.5,126.5C 372.508,118.684 372.174,110.684 372.5,102.5C 376.702,102.183 380.702,102.517 384.5,103.5 Z"/></g>
<g><path style="opacity:1" fill="#0e0e0e" d="M 384.5,103.5 C 382.012,105.388 379.012,106.055 375.5,105.5C 375.5,107.833 375.5,110.167 375.5,112.5C 382.167,113.167 382.167,113.833 375.5,114.5C 376.089,118.971 375.423,122.971 373.5,126.5C 373.5,118.833 373.5,111.167 373.5,103.5C 377.167,103.5 380.833,103.5 384.5,103.5 Z"/></g>
<g><path style="opacity:1" fill="#151515" d="M 388.5,102.5 C 392.167,102.5 395.833,102.5 399.5,102.5C 399.5,103.5 399.5,104.5 399.5,105.5C 396.5,105.5 393.5,105.5 390.5,105.5C 390.5,107.833 390.5,110.167 390.5,112.5C 398.5,113.167 398.5,113.833 390.5,114.5C 390.5,117.833 390.5,121.167 390.5,124.5C 393.572,124.183 396.572,124.516 399.5,125.5C 395.893,126.489 392.226,126.823 388.5,126.5C 388.5,118.5 388.5,110.5 388.5,102.5 Z"/></g>
<g><path style="opacity:1" fill="#686868" d="M 414.5,103.5 C 411.167,103.5 407.833,103.5 404.5,103.5C 404.5,111.167 404.5,118.833 404.5,126.5C 403.508,118.684 403.174,110.684 403.5,102.5C 407.371,102.185 411.038,102.518 414.5,103.5 Z"/></g>
<g><path style="opacity:1" fill="#191919" d="M 414.5,103.5 C 417.269,104.771 418.602,106.938 418.5,110C 418.387,113.175 417.387,116.008 415.5,118.5C 416.695,120.751 417.695,123.085 418.5,125.5C 417.675,126.386 416.675,126.719 415.5,126.5C 416.259,119.592 413.259,116.925 406.5,118.5C 407.036,121.698 406.369,124.365 404.5,126.5C 404.5,118.833 404.5,111.167 404.5,103.5C 407.833,103.5 411.167,103.5 414.5,103.5 Z"/></g>
<g><path style="opacity:1" fill="#949494" d="M 434.5,103.5 C 430.833,103.5 427.167,103.5 423.5,103.5C 423.5,111.167 423.5,118.833 423.5,126.5C 422.508,118.684 422.174,110.684 422.5,102.5C 426.702,102.183 430.702,102.517 434.5,103.5 Z"/></g>
<g><path style="opacity:1" fill="#0e0e0e" d="M 434.5,103.5 C 432.012,105.388 429.012,106.055 425.5,105.5C 425.5,107.833 425.5,110.167 425.5,112.5C 433.301,112.706 433.301,113.372 425.5,114.5C 425.5,117.833 425.5,121.167 425.5,124.5C 428.572,124.183 431.572,124.516 434.5,125.5C 430.893,126.489 427.226,126.823 423.5,126.5C 423.5,118.833 423.5,111.167 423.5,103.5C 427.167,103.5 430.833,103.5 434.5,103.5 Z"/></g>
<g><path style="opacity:1" fill="#141414" d="M 451.5,120.5 C 451.56,121.043 451.893,121.376 452.5,121.5C 453.33,115.528 453.83,109.528 454,103.5C 454.5,111.159 454.666,118.826 454.5,126.5C 453.504,126.586 452.671,126.252 452,125.5C 448.607,120.28 445.44,114.947 442.5,109.5C 442.217,108.711 441.717,108.044 441,107.5C 440.5,113.825 440.334,120.158 440.5,126.5C 438.533,118.903 437.866,110.903 438.5,102.5C 439.675,102.281 440.675,102.614 441.5,103.5C 445.109,109.057 448.442,114.724 451.5,120.5 Z"/></g>
<g><path style="opacity:1" fill="#474747" d="M 454.5,126.5 C 454.666,118.826 454.5,111.159 454,103.5C 453.83,109.528 453.33,115.528 452.5,121.5C 451.893,121.376 451.56,121.043 451.5,120.5C 452.49,114.69 452.823,108.69 452.5,102.5C 453.5,102.5 454.5,102.5 455.5,102.5C 455.826,110.684 455.492,118.684 454.5,126.5 Z"/></g>
<g><path style="opacity:1" fill="#000000" d="M 471.5,103.5 C 471.5,103.833 471.5,104.167 471.5,104.5C 469.5,104.5 467.5,104.5 465.5,104.5C 465.5,111.833 465.5,119.167 465.5,126.5C 463.539,119.913 462.872,112.913 463.5,105.5C 462.048,104.698 460.382,104.198 458.5,104C 462.821,103.501 467.154,103.334 471.5,103.5 Z"/></g>
<g><path style="opacity:1" fill="#1e1e1e" d="M 271.5,103.5 C 272.833,103.5 274.167,103.5 275.5,103.5C 275.5,111.167 275.5,118.833 275.5,126.5C 276.492,118.684 276.826,110.684 276.5,102.5C 274.585,102.216 272.919,102.549 271.5,103.5 Z"/></g>
<g><path style="opacity:1" fill="#fafafa" d="M 331.5,105.5 C 339.125,103.819 342.125,106.819 340.5,114.5C 342.331,122.332 339.331,125.665 331.5,124.5C 331.5,118.167 331.5,111.833 331.5,105.5 Z"/></g>
<g><path style="opacity:1" fill="#f8f8f8" d="M 406.5,105.5 C 409.187,105.336 411.854,105.503 414.5,106C 415.833,109.333 415.833,112.667 414.5,116C 411.854,116.497 409.187,116.664 406.5,116.5C 406.5,112.833 406.5,109.167 406.5,105.5 Z"/></g>
<g><path style="opacity:1" fill="#8c8c8c" d="M 471.5,104.5 C 470.081,105.451 468.415,105.784 466.5,105.5C 466.825,112.687 466.491,119.687 465.5,126.5C 465.5,119.167 465.5,111.833 465.5,104.5C 467.5,104.5 469.5,104.5 471.5,104.5 Z"/></g>
<g><path style="opacity:1" fill="#6f6f6f" d="M 442.5,109.5 C 441.833,115.167 441.167,120.833 440.5,126.5C 440.334,120.158 440.5,113.825 441,107.5C 441.717,108.044 442.217,108.711 442.5,109.5 Z"/></g>
<g><path style="opacity:1" fill="#b1b1b1" d="M 285.5,110.5 C 284.833,115.833 284.167,121.167 283.5,126.5C 283.334,120.491 283.501,114.491 284,108.5C 284.717,109.044 285.217,109.711 285.5,110.5 Z"/></g>
<g><path style="opacity:1" fill="#ababab" d="M 254.5,115.5 C 257.625,114.521 260.958,114.187 264.5,114.5C 264.5,118.5 264.5,122.5 264.5,126.5C 263.518,123.038 263.185,119.371 263.5,115.5C 260.5,115.5 257.5,115.5 254.5,115.5 Z"/></g>
</svg>
