<?xml version="1.0" encoding="UTF-8"?>
<!DOCTYPE svg PUBLIC "-//W3C//DTD SVG 1.1//EN" "http://www.w3.org/Graphics/SVG/1.1/DTD/svg11.dtd">
<svg xmlns="http://www.w3.org/2000/svg" version="1.1" width="500px" height="500px" style="shape-rendering:geometricPrecision; text-rendering:geometricPrecision; image-rendering:optimizeQuality; fill-rule:evenodd; clip-rule:evenodd" xmlns:xlink="http://www.w3.org/1999/xlink">
<g><path style="opacity:1" fill="#fefefe" d="M -0.5,-0.5 C 166.167,-0.5 332.833,-0.5 499.5,-0.5C 499.5,166.167 499.5,332.833 499.5,499.5C 332.833,499.5 166.167,499.5 -0.5,499.5C -0.5,332.833 -0.5,166.167 -0.5,-0.5 Z"/></g>
<g><path style="opacity:1" fill="#ccb385" d="M 102.5,186.5 C 130.945,195.426 159.279,204.759 187.5,214.5C 193.247,206.674 198.747,198.674 204,190.5C 207.69,186.348 209.69,187.015 210,192.5C 204.338,199.821 199.171,207.488 194.5,215.5C 199.942,217.927 205.442,220.26 211,222.5C 211.667,257.167 211.667,291.833 211,326.5C 164.567,327.83 118.067,327.83 71.5,326.5C 70.3417,297.209 70.175,267.875 71,238.5C 81.0842,237.514 91.2509,237.181 101.5,237.5C 101.182,220.423 101.515,203.423 102.5,186.5 Z"/></g>
<g><path style="opacity:1" fill="#fefefe" d="M 107.5,193.5 C 133.285,201.762 158.952,210.428 184.5,219.5C 169.29,242.087 153.957,264.587 138.5,287C 128.172,287.5 117.839,287.666 107.5,287.5C 107.5,272.833 107.5,258.167 107.5,243.5C 116.192,243.169 124.859,243.502 133.5,244.5C 138.496,251.045 143.663,251.045 149,244.5C 150.877,237.376 148.21,233.042 141,231.5C 137.581,231.793 135.081,233.459 133.5,236.5C 124.859,237.498 116.192,237.831 107.5,237.5C 107.5,222.833 107.5,208.167 107.5,193.5 Z"/></g>
<g><path style="opacity:1" fill="#010101" d="M 366.5,206.5 C 367.5,206.5 368.5,206.5 369.5,206.5C 369.5,219.5 369.5,232.5 369.5,245.5C 368.5,245.5 367.5,245.5 366.5,245.5C 366.5,232.5 366.5,219.5 366.5,206.5 Z"/></g>
<g><path style="opacity:1" fill="#101010" d="M 247.5,217.5 C 247.291,216.078 246.791,214.745 246,213.5C 245.5,224.161 245.333,234.828 245.5,245.5C 244.5,245.5 243.5,245.5 242.5,245.5C 242.333,233.162 242.5,220.829 243,208.5C 244.938,207.14 246.604,207.473 248,209.5C 251.667,219.833 255.333,230.167 259,240.5C 262.975,229.572 267.142,218.738 271.5,208C 272.793,207.51 274.127,207.343 275.5,207.5C 275.5,220.167 275.5,232.833 275.5,245.5C 274.5,245.5 273.5,245.5 272.5,245.5C 272.666,235.161 272.5,224.828 272,214.5C 268.667,223.833 265.333,233.167 262,242.5C 260.749,245.816 259.082,246.15 257,243.5C 253.923,234.767 250.756,226.1 247.5,217.5 Z"/></g>
<g><path style="opacity:1" fill="#171717" d="M 330.5,207.5 C 335.511,207.334 340.511,207.501 345.5,208C 352.11,210.208 354.276,214.708 352,221.5C 351.07,223.552 349.57,225.052 347.5,226C 353.234,229.18 355.067,234.013 353,240.5C 351.891,242.815 350.057,244.315 347.5,245C 341.584,245.807 335.75,245.641 330,244.5C 329.188,232.091 329.355,219.758 330.5,207.5 Z"/></g>
<g><path style="opacity:1" fill="#f9f9f9" d="M 333.5,210.5 C 337.182,210.335 340.848,210.501 344.5,211C 351.167,215.333 351.167,219.667 344.5,224C 340.848,224.499 337.182,224.665 333.5,224.5C 333.5,219.833 333.5,215.167 333.5,210.5 Z"/></g>
<g><path style="opacity:1" fill="#949494" d="M 247.5,217.5 C 246.833,226.833 246.167,236.167 245.5,245.5C 245.333,234.828 245.5,224.161 246,213.5C 246.791,214.745 247.291,216.078 247.5,217.5 Z"/></g>
<g><path style="opacity:1" fill="#171717" d="M 285.5,218.5 C 287.124,218.36 288.29,219.027 289,220.5C 291.333,227.5 293.667,234.5 296,241.5C 298.33,234.511 300.663,227.511 303,220.5C 303.71,219.027 304.876,218.36 306.5,218.5C 303.108,231.845 298.442,244.679 292.5,257C 288.716,258.31 286.382,257.143 285.5,253.5C 287.226,253.815 288.893,253.981 290.5,254C 292.207,251.561 293.541,248.895 294.5,246C 291.389,236.835 288.389,227.668 285.5,218.5 Z"/></g>
<g><path style="opacity:1" fill="#161616" d="M 387.5,217.5 C 400.615,217.799 405.782,224.465 403,237.5C 399.02,246.079 392.853,248.246 384.5,244C 376.996,234.027 377.996,225.194 387.5,217.5 Z"/></g>
<g><path style="opacity:1" fill="#121212" d="M 417.5,217.5 C 422.42,216.881 426.253,218.547 429,222.5C 429.49,221.207 429.657,219.873 429.5,218.5C 430.5,218.5 431.5,218.5 432.5,218.5C 432.666,228.839 432.5,239.172 432,249.5C 429.895,254.893 425.895,257.56 420,257.5C 416.083,257.645 413.583,255.978 412.5,252.5C 423.78,257.124 429.28,253.457 429,241.5C 421.691,248.838 415.691,247.838 411,238.5C 410.333,233.833 410.333,229.167 411,224.5C 412.694,221.642 414.861,219.309 417.5,217.5 Z"/></g>
<g><path style="opacity:1" fill="#fefefe" d="M 189.5,221.5 C 194.882,222.627 200.216,223.961 205.5,225.5C 205.5,257.5 205.5,289.5 205.5,321.5C 162.5,321.5 119.5,321.5 76.5,321.5C 76.5,295.5 76.5,269.5 76.5,243.5C 84.8333,243.5 93.1667,243.5 101.5,243.5C 101.333,259.503 101.5,275.503 102,291.5C 102.5,292 103,292.5 103.5,293C 116.167,293.667 128.833,293.667 141.5,293C 157.634,269.224 173.634,245.391 189.5,221.5 Z"/></g>
<g><path style="opacity:1" fill="#f4f4f4" d="M 388.5,220.5 C 394.308,219.652 398.142,221.985 400,227.5C 401.879,234.101 400.046,239.268 394.5,243C 389.806,244.31 386.306,242.81 384,238.5C 381.147,231.253 382.647,225.253 388.5,220.5 Z"/></g>
<g><path style="opacity:1" fill="#f8f8f8" d="M 418.5,220.5 C 428.154,221.424 431.654,226.757 429,236.5C 427.496,242.019 423.996,244.186 418.5,243C 413.848,238.464 412.348,232.964 414,226.5C 415.332,224.34 416.832,222.34 418.5,220.5 Z"/></g>
<g><path style="opacity:1" fill="#f7f7f7" d="M 333.5,227.5 C 339.024,226.898 344.19,227.898 349,230.5C 351.789,235.661 350.623,239.494 345.5,242C 341.514,242.499 337.514,242.666 333.5,242.5C 333.5,237.5 333.5,232.5 333.5,227.5 Z"/></g>
<g><path style="opacity:1" fill="#cbb487" d="M 235.5,266.5 C 304.82,268.025 374.153,268.859 443.5,269C 374.153,269.141 304.82,269.975 235.5,271.5C 235.5,269.833 235.5,268.167 235.5,266.5 Z"/></g>
<g><path style="opacity:1" fill="#616161" d="M 249.5,287.5 C 245.154,287.334 240.821,287.501 236.5,288C 238.382,288.198 240.048,288.698 241.5,289.5C 239.5,289.5 237.5,289.5 235.5,289.5C 235.5,288.5 235.5,287.5 235.5,286.5C 240.363,286.181 245.03,286.514 249.5,287.5 Z"/></g>
<g><path style="opacity:1" fill="#656565" d="M 471.5,287.5 C 467.154,287.334 462.821,287.501 458.5,288C 460.382,288.198 462.048,288.698 463.5,289.5C 461.5,289.5 459.5,289.5 457.5,289.5C 457.5,288.5 457.5,287.5 457.5,286.5C 462.363,286.181 467.03,286.514 471.5,287.5 Z"/></g>
<g><path style="opacity:1" fill="#0d0d0d" d="M 249.5,287.5 C 248.082,289.308 246.082,289.975 243.5,289.5C 242.833,317.5 242.167,317.5 241.5,289.5C 240.048,288.698 238.382,288.198 236.5,288C 240.821,287.501 245.154,287.334 249.5,287.5 Z"/></g>
<g><path style="opacity:1" fill="#a0a0a0" d="M 254.5,287.5 C 252.535,294.76 251.868,302.427 252.5,310.5C 251.508,302.684 251.174,294.684 251.5,286.5C 252.791,286.263 253.791,286.596 254.5,287.5 Z"/></g>
<g><path style="opacity:1" fill="#010101" d="M 254.5,287.5 C 254.5,290.5 254.5,293.5 254.5,296.5C 257.5,296.5 260.5,296.5 263.5,296.5C 264.166,293.642 264.833,290.642 265.5,287.5C 266.497,295.138 266.831,302.804 266.5,310.5C 265.833,310.5 265.167,310.5 264.5,310.5C 264.5,306.5 264.5,302.5 264.5,298.5C 260.958,298.187 257.625,298.521 254.5,299.5C 255.08,303.649 254.414,307.316 252.5,310.5C 251.868,302.427 252.535,294.76 254.5,287.5 Z"/></g>
<g><path style="opacity:1" fill="#cccccc" d="M 266.5,310.5 C 266.831,302.804 266.497,295.138 265.5,287.5C 264.833,290.642 264.166,293.642 263.5,296.5C 263.5,293.167 263.5,289.833 263.5,286.5C 264.833,286.5 266.167,286.5 267.5,286.5C 267.826,294.684 267.492,302.684 266.5,310.5 Z"/></g>
<g><path style="opacity:1" fill="#6e6e6e" d="M 271.5,287.5 C 272.919,286.549 274.585,286.216 276.5,286.5C 276.826,294.684 276.492,302.684 275.5,310.5C 275.5,302.833 275.5,295.167 275.5,287.5C 274.167,287.5 272.833,287.5 271.5,287.5 Z"/></g>
<g><path style="opacity:1" fill="#0f0f0f" d="M 295.5,287.5 C 297.465,294.76 298.132,302.427 297.5,310.5C 296.504,310.586 295.671,310.252 295,309.5C 291.823,304.472 288.656,299.472 285.5,294.5C 285.217,293.711 284.717,293.044 284,292.5C 283.501,298.491 283.334,304.491 283.5,310.5C 282.176,306.893 281.509,302.893 281.5,298.5C 281.833,294.5 282.167,290.5 282.5,286.5C 286.901,292.288 291.067,298.288 295,304.5C 295.499,298.843 295.666,293.176 295.5,287.5 Z"/></g>
<g><path style="opacity:1" fill="#818181" d="M 295.5,287.5 C 296.209,286.596 297.209,286.263 298.5,286.5C 298.826,294.684 298.492,302.684 297.5,310.5C 298.132,302.427 297.465,294.76 295.5,287.5 Z"/></g>
<g><path style="opacity:1" fill="#131313" d="M 303.5,286.5 C 305.25,289.355 306.083,292.689 306,296.5C 308.248,293.672 310.248,290.672 312,287.5C 313.049,286.483 314.216,286.316 315.5,287C 312.795,290.242 310.461,293.742 308.5,297.5C 311,301.167 313.5,304.833 316,308.5C 316.591,309.483 316.257,310.15 315,310.5C 311.972,307.132 309.306,303.466 307,299.5C 305.904,303.024 305.071,306.69 304.5,310.5C 303.502,302.528 303.169,294.528 303.5,286.5 Z"/></g>
<g><path style="opacity:1" fill="#969696" d="M 337.5,287.5 C 334.833,287.5 332.167,287.5 329.5,287.5C 329.5,295.167 329.5,302.833 329.5,310.5C 328.508,302.684 328.174,294.684 328.5,286.5C 331.713,286.19 334.713,286.523 337.5,287.5 Z"/></g>
<g><path style="opacity:1" fill="#1b1b1b" d="M 337.5,287.5 C 340.292,287.452 342.125,288.785 343,291.5C 343.667,296.5 343.667,301.5 343,306.5C 342.348,308.723 340.848,309.89 338.5,310C 335.518,310.498 332.518,310.665 329.5,310.5C 329.5,302.833 329.5,295.167 329.5,287.5C 332.167,287.5 334.833,287.5 337.5,287.5 Z"/></g>
<g><path style="opacity:1" fill="#050505" d="M 348.5,287.5 C 349.833,287.5 351.167,287.5 352.5,287.5C 352.5,295.167 352.5,302.833 352.5,310.5C 351.045,303.044 349.712,295.377 348.5,287.5 Z"/></g>
<g><path style="opacity:1" fill="#a2a2a2" d="M 348.5,287.5 C 349.712,295.377 351.045,303.044 352.5,310.5C 352.5,302.833 352.5,295.167 352.5,287.5C 351.167,287.5 349.833,287.5 348.5,287.5 Z"/></g>
<g><path style="opacity:1" fill="#949494" d="M 369.5,287.5 C 365.833,287.5 362.167,287.5 358.5,287.5C 358.5,295.167 358.5,302.833 358.5,310.5C 357.508,302.684 357.174,294.684 357.5,286.5C 361.702,286.183 365.702,286.517 369.5,287.5 Z"/></g>
<g><path style="opacity:1" fill="#0e0e0e" d="M 369.5,287.5 C 367.012,289.388 364.012,290.055 360.5,289.5C 360.5,291.833 360.5,294.167 360.5,296.5C 367.167,297.167 367.167,297.833 360.5,298.5C 361.089,302.971 360.423,306.971 358.5,310.5C 358.5,302.833 358.5,295.167 358.5,287.5C 362.167,287.5 365.833,287.5 369.5,287.5 Z"/></g>
<g><path style="opacity:1" fill="#949494" d="M 384.5,287.5 C 380.833,287.5 377.167,287.5 373.5,287.5C 373.5,295.167 373.5,302.833 373.5,310.5C 372.508,302.684 372.174,294.684 372.5,286.5C 376.702,286.183 380.702,286.517 384.5,287.5 Z"/></g>
<g><path style="opacity:1" fill="#0e0e0e" d="M 384.5,287.5 C 382.012,289.388 379.012,290.055 375.5,289.5C 375.5,291.833 375.5,294.167 375.5,296.5C 382.167,297.167 382.167,297.833 375.5,298.5C 376.089,302.971 375.423,306.971 373.5,310.5C 373.5,302.833 373.5,295.167 373.5,287.5C 377.167,287.5 380.833,287.5 384.5,287.5 Z"/></g>
<g><path style="opacity:1" fill="#151515" d="M 388.5,286.5 C 392.167,286.5 395.833,286.5 399.5,286.5C 399.5,287.5 399.5,288.5 399.5,289.5C 396.5,289.5 393.5,289.5 390.5,289.5C 390.5,291.833 390.5,294.167 390.5,296.5C 398.5,297.167 398.5,297.833 390.5,298.5C 390.5,301.833 390.5,305.167 390.5,308.5C 393.572,308.183 396.572,308.516 399.5,309.5C 395.893,310.489 392.226,310.823 388.5,310.5C 388.5,302.5 388.5,294.5 388.5,286.5 Z"/></g>
<g><path style="opacity:1" fill="#686868" d="M 414.5,287.5 C 411.167,287.5 407.833,287.5 404.5,287.5C 404.5,295.167 404.5,302.833 404.5,310.5C 403.508,302.684 403.174,294.684 403.5,286.5C 407.371,286.185 411.038,286.518 414.5,287.5 Z"/></g>
<g><path style="opacity:1" fill="#191919" d="M 414.5,287.5 C 417.269,288.771 418.602,290.938 418.5,294C 418.387,297.175 417.387,300.008 415.5,302.5C 416.695,304.751 417.695,307.085 418.5,309.5C 417.675,310.386 416.675,310.719 415.5,310.5C 416.259,303.592 413.259,300.925 406.5,302.5C 407.036,305.698 406.369,308.365 404.5,310.5C 404.5,302.833 404.5,295.167 404.5,287.5C 407.833,287.5 411.167,287.5 414.5,287.5 Z"/></g>
<g><path style="opacity:1" fill="#949494" d="M 434.5,287.5 C 430.833,287.5 427.167,287.5 423.5,287.5C 423.5,295.167 423.5,302.833 423.5,310.5C 422.508,302.684 422.174,294.684 422.5,286.5C 426.702,286.183 430.702,286.517 434.5,287.5 Z"/></g>
<g><path style="opacity:1" fill="#0e0e0e" d="M 434.5,287.5 C 432.012,289.388 429.012,290.055 425.5,289.5C 425.5,291.833 425.5,294.167 425.5,296.5C 433.301,296.706 433.301,297.372 425.5,298.5C 425.5,301.833 425.5,305.167 425.5,308.5C 428.572,308.183 431.572,308.516 434.5,309.5C 430.893,310.489 427.226,310.823 423.5,310.5C 423.5,302.833 423.5,295.167 423.5,287.5C 427.167,287.5 430.833,287.5 434.5,287.5 Z"/></g>
<g><path style="opacity:1" fill="#141414" d="M 451.5,304.5 C 451.56,305.043 451.893,305.376 452.5,305.5C 453.33,299.528 453.83,293.528 454,287.5C 454.5,295.159 454.666,302.826 454.5,310.5C 453.504,310.586 452.671,310.252 452,309.5C 448.607,304.28 445.44,298.947 442.5,293.5C 442.217,292.711 441.717,292.044 441,291.5C 440.5,297.825 440.334,304.158 440.5,310.5C 438.533,302.903 437.866,294.903 438.5,286.5C 439.675,286.281 440.675,286.614 441.5,287.5C 445.109,293.057 448.442,298.724 451.5,304.5 Z"/></g>
<g><path style="opacity:1" fill="#474747" d="M 454.5,310.5 C 454.666,302.826 454.5,295.159 454,287.5C 453.83,293.528 453.33,299.528 452.5,305.5C 451.893,305.376 451.56,305.043 451.5,304.5C 452.49,298.69 452.823,292.69 452.5,286.5C 453.5,286.5 454.5,286.5 455.5,286.5C 455.826,294.684 455.492,302.684 454.5,310.5 Z"/></g>
<g><path style="opacity:1" fill="#000000" d="M 471.5,287.5 C 471.5,287.833 471.5,288.167 471.5,288.5C 469.5,288.5 467.5,288.5 465.5,288.5C 465.5,295.833 465.5,303.167 465.5,310.5C 463.539,303.913 462.872,296.913 463.5,289.5C 462.048,288.698 460.382,288.198 458.5,288C 462.821,287.501 467.154,287.334 471.5,287.5 Z"/></g>
<g><path style="opacity:1" fill="#1e1e1e" d="M 271.5,287.5 C 272.833,287.5 274.167,287.5 275.5,287.5C 275.5,295.167 275.5,302.833 275.5,310.5C 276.492,302.684 276.826,294.684 276.5,286.5C 274.585,286.216 272.919,286.549 271.5,287.5 Z"/></g>
<g><path style="opacity:1" fill="#fafafa" d="M 331.5,289.5 C 339.125,287.819 342.125,290.819 340.5,298.5C 342.331,306.332 339.331,309.665 331.5,308.5C 331.5,302.167 331.5,295.833 331.5,289.5 Z"/></g>
<g><path style="opacity:1" fill="#f8f8f8" d="M 406.5,289.5 C 409.187,289.336 411.854,289.503 414.5,290C 415.833,293.333 415.833,296.667 414.5,300C 411.854,300.497 409.187,300.664 406.5,300.5C 406.5,296.833 406.5,293.167 406.5,289.5 Z"/></g>
<g><path style="opacity:1" fill="#8c8c8c" d="M 471.5,288.5 C 470.081,289.451 468.415,289.784 466.5,289.5C 466.825,296.687 466.491,303.687 465.5,310.5C 465.5,303.167 465.5,295.833 465.5,288.5C 467.5,288.5 469.5,288.5 471.5,288.5 Z"/></g>
<g><path style="opacity:1" fill="#6f6f6f" d="M 442.5,293.5 C 441.833,299.167 441.167,304.833 440.5,310.5C 440.334,304.158 440.5,297.825 441,291.5C 441.717,292.044 442.217,292.711 442.5,293.5 Z"/></g>
<g><path style="opacity:1" fill="#b1b1b1" d="M 285.5,294.5 C 284.833,299.833 284.167,305.167 283.5,310.5C 283.334,304.491 283.501,298.491 284,292.5C 284.717,293.044 285.217,293.711 285.5,294.5 Z"/></g>
<g><path style="opacity:1" fill="#ababab" d="M 254.5,299.5 C 257.625,298.521 260.958,298.187 264.5,298.5C 264.5,302.5 264.5,306.5 264.5,310.5C 263.518,307.038 263.185,303.371 263.5,299.5C 260.5,299.5 257.5,299.5 254.5,299.5 Z"/></g>
</svg>
