<svg xmlns="http://www.w3.org/2000/svg" version="1.1" xmlns:xlink="http://www.w3.org/1999/xlink" xmlns:svgjs="http://svgjs.dev/svgjs" width="2000" height="60" viewBox="0 0 2000 257"><g transform="matrix(1,0,0,1,-1.2121212121212466,-1.6586661621627456)"><svg viewBox="0 0 396 51" data-background-color="#faf9f3" preserveAspectRatio="xMidYMid meet" height="257" width="2000" xmlns="http://www.w3.org/2000/svg" xmlns:xlink="http://www.w3.org/1999/xlink"><g id="tight-bounds" transform="matrix(1,0,0,1,0.2400000000000091,0.3291516508571988)"><svg viewBox="0 0 395.52 50.341696698285595" height="50.341696698285595" width="395.52"><g><svg viewBox="0 0 466.89170252330973 59.425870953111456" height="50.341696698285595" width="395.52"><g transform="matrix(1,0,0,1,71.37170252330978,8.212982165010342)"><svg viewBox="0 0 395.52 42.99990662309077" height="42.99990662309077" width="395.52"><g id="textblocktransform"><svg viewBox="0 0 395.52 42.99990662309077" height="42.99990662309077" width="395.52" id="textblock"><g><svg viewBox="0 0 395.52 42.99990662309077" height="42.99990662309077" width="395.52"><g transform="matrix(1,0,0,1,0,0)"><svg width="395.52" viewBox="3.3 -54.4 749.5600000000001 84.64999999999998" height="42.99990662309077" data-palette-color="#243cfc"><path d="M23.25-18.55Q27-18.15 29.4-16 31.8-13.85 31.8-10.4L31.8-10.4Q31.8-7.7 30.28-5.13 28.75-2.55 25.63-0.85 22.5 0.85 17.9 0.85L17.9 0.85Q14.65 0.85 11.8 0.03 8.95-0.8 7.4-2L7.4-2Q7.05-1 6.55-0.68 6.05-0.35 5.3-0.35L5.3-0.35Q4.95-0.35 4.67-0.45 4.4-0.55 3.9-0.75L3.9-0.75Q5-2.7 5.5-4.8L5.5-4.8Q11.8-30.85 11.8-32.85L11.8-32.85Q11.8-33.15 11.63-33.27 11.45-33.4 11-33.4L11-33.4Q10.2-33.4 7.8-32.9L7.8-32.9Q5.5-32.4 4.8-32.4L4.8-32.4Q3.3-32.4 3.3-33.8L3.3-33.8Q3.3-34.3 3.38-34.85 3.45-35.4 3.6-35.85L3.6-35.85Q4.05-35.4 4.7-35.3 5.35-35.2 7.3-35.15L7.3-35.15 12.2-35.05Q12.4-35.05 12.8-35.02 13.2-35 14.15-35L14.15-35Q19.95-34.85 23.3-34.45 26.65-34.05 28.9-32.58 31.15-31.1 31.15-28L31.15-28Q31.15-24.9 28.98-22.33 26.8-19.75 23.25-18.55L23.25-18.55ZM17.3-1.2Q20.75-1.2 23.33-2.43 25.9-3.65 27.28-5.73 28.65-7.8 28.65-10.3L28.65-10.3Q28.65-13.45 26.45-15.25 24.25-17.05 20.4-17.05L20.4-17.05Q17.1-17.05 15.5-16.85L15.5-16.85Q14.95-16.95 14.9-18.05L14.9-18.05 14.9-18.4Q14.9-19.25 15.25-19.55L15.25-19.55Q15.6-19.55 16.75-19.45 17.9-19.35 18.8-19.35L18.8-19.35Q22.8-19.35 25.43-21.45 28.05-23.55 28.05-27.1L28.05-27.1Q28.05-30.5 25.4-31.98 22.75-33.45 17.9-33.45L17.9-33.45Q16.2-33.45 15.45-33.13 14.7-32.8 14.25-31.83 13.8-30.85 13.1-28.2L13.1-28.2Q10.55-18.65 7.9-4.4L7.9-4.4Q11.9-1.2 17.3-1.2L17.3-1.2ZM59.55-11.95Q60.45-11.8 60.45-10.95L60.45-10.95Q60.45-8.95 57.87-6.28 55.3-3.6 51.8-1.68 48.3 0.25 45.95 0.25L45.95 0.25Q43.7 0.25 42.05-0.93 40.4-2.1 39.52-3.55 38.65-5 38.65-5.7L38.65-5.7Q39.45-8.55 40.4-13.6L40.4-13.6 40.95-16.4Q41.15-17.4 42.4-18.48 43.65-19.55 45.2-20.28 46.75-21 47.7-21L47.7-21Q48.45-21 49.52-20.53 50.6-20.05 51.42-19.05 52.25-18.05 52.25-16.5L52.25-16.5Q52.25-14.7 51.05-13.1 49.85-11.5 47.5-10.5 45.15-9.5 41.85-9.5L41.85-9.5 41.15-6.15Q41.15-5.7 41.67-4.65 42.2-3.6 43.37-2.75 44.55-1.9 46.35-1.9L46.35-1.9Q48.75-1.9 51.4-3.48 54.05-5.05 56.25-7.4 58.45-9.75 59.55-11.95L59.55-11.95ZM47.3-18.95Q46.7-18.95 45.75-18.45 44.8-17.95 44.02-17.2 43.25-16.45 43.1-15.8L43.1-15.8Q42.6-13.55 42.2-11.25L42.2-11.25Q46.05-11.4 48-12.78 49.95-14.15 49.95-15.9L49.95-15.9Q49.95-17.15 49.05-18.05 48.15-18.95 47.3-18.95L47.3-18.95ZM62.3 0.35Q60.55 0.35 59.17-0.83 57.8-2 57.8-4.3L57.8-4.3Q58.55-6.7 60.4-14.95L60.4-14.95Q61.3-19 61.5-19.8L61.5-19.8Q62.15-20.9 63.3-20.9L63.3-20.9Q64.05-20.9 64.05-20.4L64.05-20.4Q63.7-19.15 63.07-16.43 62.45-13.7 62.1-12.15L62.1-12.15Q60.75-5.95 60.25-4.2L60.25-4.2Q60.25-3.05 60.92-2.43 61.6-1.8 62.7-1.8L62.7-1.8Q65.2-1.8 67.72-3.58 70.25-5.35 72.17-7.7 74.1-10.05 75.05-11.75L75.05-11.75Q75.35-11.65 75.45-11.43 75.55-11.2 75.55-10.65L75.55-10.65Q75.55-9.9 75.05-9.1L75.05-9.1Q72.35-4.85 69-2.25 65.65 0.35 62.3 0.35L62.3 0.35ZM64.6-27.15Q63.9-27.15 63.5-27.63 63.1-28.1 63.1-28.85L63.1-28.85Q63.1-29.85 63.75-30.68 64.4-31.5 65.4-31.5L65.4-31.5Q66.2-31.5 66.57-31 66.95-30.5 66.95-29.8L66.95-29.8Q66.95-28.8 66.27-27.98 65.6-27.15 64.6-27.15L64.6-27.15ZM96.64-12.2Q97.14-12.2 97.37-11.78 97.59-11.35 97.59-10.8L97.59-10.8Q97.59-9 95.69-6.25 93.79-3.5 90.87-1.45 87.94 0.6 85.09 0.6L85.09 0.6Q83.29 0.6 82.32-0.3 81.34-1.2 81.34-3.05L81.34-3.05Q81.34-5.6 82.74-9.98 84.14-14.35 85.29-17.25L85.29-17.25Q85.09-17.55 84.89-17.55L84.89-17.55Q84.69-17.55 84.44-17.4L84.44-17.4Q83.54-16.85 81.49-14.95 79.44-13.05 77.49-10.95 75.54-8.85 74.84-7.55L74.84-7.55Q74.04-5.4 73.84-4.83 73.64-4.25 73.44-2.95L73.44-2.95 72.99-0.7Q72.94-0.55 72.89-0.33 72.84-0.1 72.77-0.05 72.69 0 72.54 0L72.54 0Q72.09 0 71.37-0.1 70.64-0.2 70.64-0.4L70.64-0.4Q70.64-1 70.99-2.35 71.34-3.7 71.69-4.8 72.04-5.9 72.24-6.5L72.24-6.5 72.69-7.9Q74.14-12.9 74.67-15.18 75.19-17.45 75.69-20.25L75.69-20.25Q75.74-20.75 76.39-20.75L76.39-20.75Q76.84-20.75 77.42-20.53 77.99-20.3 78.09-19.9L78.09-19.9Q77.89-19 77.37-16.85 76.84-14.7 76.09-12.1L76.09-12.1Q78.99-15.35 82.12-18 85.24-20.65 86.29-20.65L86.29-20.65Q86.79-20.65 87.49-20.15 88.19-19.65 88.34-19.2L88.34-19.2Q86.74-14.9 85.29-9.83 83.84-4.75 83.84-3.15L83.84-3.15Q83.84-1.4 85.84-1.4L85.84-1.4Q88.79-1.4 91.82-4.7 94.84-8 96.64-12.2L96.64-12.2ZM110.74-22.75Q111.34-22.15 111.94-21.75L111.94-21.75Q112.44-21.35 112.62-21.13 112.79-20.9 112.79-20.5L112.79-20.5Q112.79-20.1 112.59-19.5L112.59-19.5Q111.59-15.65 109.94-8.45L109.94-8.45Q108.84-3.55 107.94-0.05L107.94-0.05Q105.34 10.5 102.62 16.95 99.89 23.4 95.82 26.83 91.74 30.25 85.64 30.25L85.64 30.25Q81.64 30.25 78.89 28.88 76.14 27.5 74.84 25.4 73.54 23.3 73.54 21.1L73.54 21.1Q73.54 20.6 73.64 20.28 73.74 19.95 74.14 19.3L74.14 19.3Q77.09 27.35 85.74 27.35L85.74 27.35Q91.14 27.35 94.74 24.18 98.34 21 100.79 15.23 103.24 9.45 105.64 0L105.64 0 105.89-1Q105.99-1.4 106.09-1.75 106.19-2.1 106.24-2.45L106.24-2.45Q104.84-1.1 102.99-0.35 101.14 0.4 99.89 0.4L99.89 0.4Q98.59 0.4 97.37-0.45 96.14-1.3 95.39-2.58 94.64-3.85 94.64-5.05L94.64-5.05Q94.94-6.25 95.34-8.1 95.74-9.95 95.94-10.95L95.94-10.95 97.14-16.35Q97.39-17.4 98.74-18.6 100.09-19.8 101.82-20.6 103.54-21.4 104.79-21.4L104.79-21.4Q106.14-21.4 107.44-20.4 108.74-19.4 109.74-17.75L109.74-17.75Q110.04-19.15 110.29-21.05L110.29-21.05 110.54-22.7 110.74-22.75ZM107.24-6.85L109.14-15.1Q108.19-16.95 106.97-18.05 105.74-19.15 104.59-19.15L104.59-19.15Q103.79-19.15 102.64-18.63 101.49-18.1 100.54-17.23 99.59-16.35 99.34-15.3L99.34-15.3Q98.99-13.8 98.04-8.6L98.04-8.6 97.44-5.2Q97.44-4 98.32-2.95 99.19-1.9 100.34-1.9L100.34-1.9Q101.19-1.9 102.74-2.5 104.29-3.1 105.59-4.23 106.89-5.35 107.24-6.85L107.24-6.85ZM158.49-11.55Q159.14-11.55 159.14-10.25L159.14-10.25Q159.14-7.95 157.11-5.4 155.09-2.85 152.21-1.13 149.34 0.6 146.94 0.6L146.94 0.6Q144.99 0.6 143.94-0.6 142.89-1.8 142.69-3.7L142.69-3.7Q141.44-1.9 139.54-0.75 137.64 0.4 136.14 0.4L136.14 0.4Q134.84 0.4 133.56-0.48 132.29-1.35 131.49-2.63 130.69-3.9 130.64-5.05L130.64-5.05 133.09-15.15Q133.39-16.35 134.61-17.73 135.84-19.1 137.59-20 139.34-20.9 141.14-20.9L141.14-20.9Q143.44-20.9 145.19-19.35L145.19-19.35Q145.64-20.55 145.86-20.85 146.09-21.15 146.54-21.2L146.54-21.2 148.99-21.45 149.14-21.35Q148.14-20.55 147.69-18.85L147.69-18.85Q146.14-13.05 145.56-10.3 144.99-7.55 144.99-5.45L144.99-5.45Q144.99-3.35 145.54-2.38 146.09-1.4 147.39-1.4L147.39-1.4Q148.99-1.4 151.21-2.7 153.44-4 155.44-6.33 157.44-8.65 158.49-11.55L158.49-11.55ZM136.34-1.95Q137.19-1.95 138.41-2.55 139.64-3.15 140.71-4.28 141.79-5.4 142.19-6.85L142.19-6.85 143.14-10.95Q143.34-11.95 143.84-14.18 144.34-16.4 144.64-17.6L144.64-17.6Q143.24-19 141.24-19L141.24-19Q139.69-19 138.44-18.18 137.19-17.35 136.39-16.18 135.59-15 135.39-14.1L135.39-14.1 133.39-5.2Q133.49-3.95 134.39-2.95 135.29-1.95 136.34-1.95L136.34-1.95ZM188.48-8.3Q188.73-7.95 188.73-7.45L188.73-7.45Q188.73-7.05 188.58-6.75 188.43-6.45 188.08-6L188.08-6Q186.78-4.45 184.46-2.93 182.13-1.4 179.58-0.45 177.03 0.5 175.13 0.5L175.13 0.5Q172.98 0.5 171.56-0.83 170.13-2.15 170.13-4.8L170.13-4.8Q170.13-8.15 172.53-17.4L172.53-17.4 167.23-17.2Q167.13-17.25 166.96-17.38 166.78-17.5 166.73-17.6L166.73-17.6Q166.88-17.85 167.28-18.6 167.68-19.35 167.98-19.65L167.98-19.65 173.13-19.6Q174.78-25.7 176.93-32.15L176.93-32.15Q177.83-32.85 179.23-33.68 180.63-34.5 180.93-34.5L180.93-34.5Q181.38-34.3 181.48-33.95L181.48-33.95Q180.58-33.6 180.08-33.02 179.58-32.45 179.08-31.15L179.08-31.15Q177.63-27.45 175.58-19.6L175.58-19.6 188.33-19.55 188.38-18.75Q188.38-18.35 188.23-18.2 188.08-18.05 187.53-18L187.53-18Q186.83-17.95 175.03-17.5L175.03-17.5Q172.73-8.1 172.73-4.95L172.73-4.95Q172.73-3.2 173.58-2.38 174.43-1.55 176.18-1.55L176.18-1.55Q181.28-1.55 188.48-8.3L188.48-8.3ZM208.93-17.85Q209.13-17.8 209.28-17.55 209.43-17.3 209.43-17L209.43-17Q209.43-15.95 208.45-14.98 207.48-14 205.9-13.4 204.33-12.8 202.73-12.8L202.73-12.8Q200.23-12.8 198.45-14.1 196.68-15.4 196.18-17.75L196.18-17.75Q193.93-17.5 192.05-14.9 190.18-12.3 189.43-9.25L189.43-9.25Q189.33-8.75 188.68-6.18 188.03-3.6 187.43-0.1L187.43-0.1Q187.38 0.05 187.3 0.13 187.23 0.2 186.98 0.2L186.98 0.2Q186.63 0.2 185.93-0.1 185.23-0.4 185.23-0.75L185.23-0.75Q185.23-1.45 185.48-2.6L185.48-2.6Q188.53-16.7 189.43-20.05L189.43-20.05Q189.53-20.5 189.65-20.65 189.78-20.8 190.08-20.8L190.08-20.8Q190.28-20.8 190.93-20.48 191.58-20.15 191.98-19.8L191.98-19.8 191.08-16.9 190.78-15.9Q191.93-17.7 193.43-18.8 194.93-19.9 196.63-19.9L196.63-19.9Q197.13-19.9 197.63-19.8 198.13-19.7 198.33-19.55L198.33-19.55Q198.33-17.1 199.6-15.93 200.88-14.75 203.18-14.75L203.18-14.75Q205.23-14.75 206.58-15.45 207.93-16.15 208.93-17.85L208.93-17.85ZM233.03-11.55Q233.68-11.55 233.68-10.25L233.68-10.25Q233.68-7.95 231.65-5.4 229.63-2.85 226.75-1.13 223.88 0.6 221.48 0.6L221.48 0.6Q219.53 0.6 218.48-0.6 217.43-1.8 217.23-3.7L217.23-3.7Q215.98-1.9 214.08-0.75 212.18 0.4 210.68 0.4L210.68 0.4Q209.38 0.4 208.1-0.48 206.83-1.35 206.03-2.63 205.23-3.9 205.18-5.05L205.18-5.05 207.63-15.15Q207.93-16.35 209.15-17.73 210.38-19.1 212.13-20 213.88-20.9 215.68-20.9L215.68-20.9Q217.98-20.9 219.73-19.35L219.73-19.35Q220.18-20.55 220.4-20.85 220.63-21.15 221.08-21.2L221.08-21.2 223.53-21.45 223.68-21.35Q222.68-20.55 222.23-18.85L222.23-18.85Q220.68-13.05 220.1-10.3 219.53-7.55 219.53-5.45L219.53-5.45Q219.53-3.35 220.08-2.38 220.63-1.4 221.93-1.4L221.93-1.4Q223.53-1.4 225.75-2.7 227.98-4 229.98-6.33 231.98-8.65 233.03-11.55L233.03-11.55ZM210.88-1.95Q211.73-1.95 212.95-2.55 214.18-3.15 215.25-4.28 216.33-5.4 216.73-6.85L216.73-6.85 217.68-10.95Q217.88-11.95 218.38-14.18 218.88-16.4 219.18-17.6L219.18-17.6Q217.78-19 215.78-19L215.78-19Q214.23-19 212.98-18.18 211.73-17.35 210.93-16.18 210.13-15 209.93-14.1L209.93-14.1 207.93-5.2Q208.03-3.95 208.93-2.95 209.83-1.95 210.88-1.95L210.88-1.95ZM242.22-22.5Q245.17-21.6 246.57-20.28 247.97-18.95 247.97-16.3L247.97-16.3Q247.97-14.25 247-12.48 246.02-10.7 244.02-8.65 242.02-6.6 237.37-2.35L237.37-2.35Q236.52-1.6 234.82 0L234.82 0 232.77 0Q232.97-0.8 232.97-1.15L232.97-1.15 232.92-14.2 232.92-15.95Q232.92-17.45 232.7-17.88 232.47-18.3 231.57-18.3L231.57-18.3 228.12-18.35Q228.12-19 228.47-19.35L228.47-19.35Q230.27-19.55 231.15-19.78 232.02-20 232.72-20.3 233.42-20.6 233.87-20.8L233.87-20.8Q235.02-20.4 235.32-19.35 235.62-18.3 235.62-16.55L235.62-16.55Q235.62-12.05 235.47-7.7L235.47-7.7Q235.47-6.95 235.37-2.65L235.37-2.65Q241.07-8.6 243.12-11.65 245.17-14.7 245.17-16.85L245.17-16.85Q245.17-20.1 241.72-22.25L241.72-22.25 242.22-22.5ZM272.82-11.95Q273.72-11.8 273.72-10.95L273.72-10.95Q273.72-8.95 271.15-6.28 268.57-3.6 265.07-1.68 261.57 0.25 259.22 0.25L259.22 0.25Q256.97 0.25 255.32-0.93 253.67-2.1 252.8-3.55 251.92-5 251.92-5.7L251.92-5.7Q252.72-8.55 253.67-13.6L253.67-13.6 254.22-16.4Q254.42-17.4 255.67-18.48 256.92-19.55 258.47-20.28 260.02-21 260.97-21L260.97-21Q261.72-21 262.8-20.53 263.87-20.05 264.7-19.05 265.52-18.05 265.52-16.5L265.52-16.5Q265.52-14.7 264.32-13.1 263.12-11.5 260.77-10.5 258.42-9.5 255.12-9.5L255.12-9.5 254.42-6.15Q254.42-5.7 254.95-4.65 255.47-3.6 256.65-2.75 257.82-1.9 259.62-1.9L259.62-1.9Q262.02-1.9 264.67-3.48 267.32-5.05 269.52-7.4 271.72-9.75 272.82-11.95L272.82-11.95ZM260.57-18.95Q259.97-18.95 259.02-18.45 258.07-17.95 257.3-17.2 256.52-16.45 256.37-15.8L256.37-15.8Q255.87-13.55 255.47-11.25L255.47-11.25Q259.32-11.4 261.27-12.78 263.22-14.15 263.22-15.9L263.22-15.9Q263.22-17.15 262.32-18.05 261.42-18.95 260.57-18.95L260.57-18.95ZM291.87-14Q292.37-14 292.67-13.53 292.97-13.05 292.97-12.35L292.97-12.35Q292.97-11.45 292.47-10.45L292.47-10.45Q291.07-7.5 288.47-5.03 285.87-2.55 282.84-1.1 279.82 0.35 277.22 0.35L277.22 0.35Q271.92 0.35 271.92-5.8L271.92-5.8Q271.92-10.1 274.27-19.63 276.62-29.15 281.07-44.9L281.07-44.9Q282.02-48.15 283.14-49.7 284.27-51.25 285.72-51.25L285.72-51.25Q286.77-51.25 287.74-50.53 288.72-49.8 289.37-48.3 290.02-46.8 290.02-44.6L290.02-44.6Q290.02-41.05 288.34-35.6 286.67-30.15 283.32-24.1 279.97-18.05 275.27-12.9L275.27-12.9Q274.42-8.5 274.42-6.35L274.42-6.35Q274.42-3.95 275.39-2.93 276.37-1.9 278.12-1.9L278.12-1.9Q280.57-1.9 283.34-3.55 286.12-5.2 288.42-8 290.72-10.8 291.87-14L291.87-14ZM282.37-41.75Q278.17-26.65 276.02-16.7L276.02-16.7Q279.72-21.35 282.39-26.85 285.07-32.35 286.39-37.15 287.72-41.95 287.72-44.7L287.72-44.7Q287.72-46.25 287.27-47.38 286.82-48.5 285.77-48.5L285.77-48.5Q285.17-48.5 284.34-47.25 283.52-46 282.37-41.75L282.37-41.75ZM310.77-11.95Q311.67-11.8 311.67-10.95L311.67-10.95Q311.67-8.95 309.09-6.28 306.52-3.6 303.02-1.68 299.52 0.25 297.17 0.25L297.17 0.25Q294.92 0.25 293.27-0.93 291.62-2.1 290.74-3.55 289.87-5 289.87-5.7L289.87-5.7Q290.67-8.55 291.62-13.6L291.62-13.6 292.17-16.4Q292.37-17.4 293.62-18.48 294.87-19.55 296.42-20.28 297.97-21 298.92-21L298.92-21Q299.67-21 300.74-20.53 301.82-20.05 302.64-19.05 303.47-18.05 303.47-16.5L303.47-16.5Q303.47-14.7 302.27-13.1 301.07-11.5 298.72-10.5 296.37-9.5 293.07-9.5L293.07-9.5 292.37-6.15Q292.37-5.7 292.89-4.65 293.42-3.6 294.59-2.75 295.77-1.9 297.57-1.9L297.57-1.9Q299.97-1.9 302.62-3.48 305.27-5.05 307.47-7.4 309.67-9.75 310.77-11.95L310.77-11.95ZM298.52-18.95Q297.92-18.95 296.97-18.45 296.02-17.95 295.24-17.2 294.47-16.45 294.32-15.8L294.32-15.8Q293.82-13.55 293.42-11.25L293.42-11.25Q297.27-11.4 299.22-12.78 301.17-14.15 301.17-15.9L301.17-15.9Q301.17-17.15 300.27-18.05 299.37-18.95 298.52-18.95L298.52-18.95ZM331.26-17.85Q331.46-17.8 331.61-17.55 331.76-17.3 331.76-17L331.76-17Q331.76-15.95 330.79-14.98 329.81-14 328.24-13.4 326.66-12.8 325.06-12.8L325.06-12.8Q322.56-12.8 320.79-14.1 319.01-15.4 318.51-17.75L318.51-17.75Q316.26-17.5 314.39-14.9 312.51-12.3 311.76-9.25L311.76-9.25Q311.66-8.75 311.01-6.18 310.36-3.6 309.76-0.1L309.76-0.1Q309.71 0.05 309.64 0.13 309.56 0.2 309.31 0.2L309.31 0.2Q308.96 0.2 308.26-0.1 307.56-0.4 307.56-0.75L307.56-0.75Q307.56-1.45 307.81-2.6L307.81-2.6Q310.86-16.7 311.76-20.05L311.76-20.05Q311.86-20.5 311.99-20.65 312.11-20.8 312.41-20.8L312.41-20.8Q312.61-20.8 313.26-20.48 313.91-20.15 314.31-19.8L314.31-19.8 313.41-16.9 313.11-15.9Q314.26-17.7 315.76-18.8 317.26-19.9 318.96-19.9L318.96-19.9Q319.46-19.9 319.96-19.8 320.46-19.7 320.66-19.55L320.66-19.55Q320.66-17.1 321.94-15.93 323.21-14.75 325.51-14.75L325.51-14.75Q327.56-14.75 328.91-15.45 330.26-16.15 331.26-17.85L331.26-17.85ZM362.66-17.85Q362.86-17.8 363.01-17.55 363.16-17.3 363.16-17L363.16-17Q363.16-15.95 362.18-14.98 361.21-14 359.63-13.4 358.06-12.8 356.46-12.8L356.46-12.8Q353.96-12.8 352.18-14.1 350.41-15.4 349.91-17.75L349.91-17.75Q347.66-17.5 345.78-14.9 343.91-12.3 343.16-9.25L343.16-9.25Q343.06-8.75 342.41-6.18 341.76-3.6 341.16-0.1L341.16-0.1Q341.11 0.05 341.03 0.13 340.96 0.2 340.71 0.2L340.71 0.2Q340.36 0.2 339.66-0.1 338.96-0.4 338.96-0.75L338.96-0.75Q338.96-1.45 339.21-2.6L339.21-2.6Q342.26-16.7 343.16-20.05L343.16-20.05Q343.26-20.5 343.38-20.65 343.51-20.8 343.81-20.8L343.81-20.8Q344.01-20.8 344.66-20.48 345.31-20.15 345.71-19.8L345.71-19.8 344.81-16.9 344.51-15.9Q345.66-17.7 347.16-18.8 348.66-19.9 350.36-19.9L350.36-19.9Q350.86-19.9 351.36-19.8 351.86-19.7 352.06-19.55L352.06-19.55Q352.06-17.1 353.33-15.93 354.61-14.75 356.91-14.75L356.91-14.75Q358.96-14.75 360.31-15.45 361.66-16.15 362.66-17.85L362.66-17.85ZM386.75-11.55Q387.4-11.55 387.4-10.25L387.4-10.25Q387.4-7.95 385.38-5.4 383.36-2.85 380.48-1.13 377.61 0.6 375.2 0.6L375.2 0.6Q373.25 0.6 372.2-0.6 371.15-1.8 370.95-3.7L370.95-3.7Q369.7-1.9 367.81-0.75 365.9 0.4 364.4 0.4L364.4 0.4Q363.11 0.4 361.83-0.48 360.56-1.35 359.75-2.63 358.95-3.9 358.9-5.05L358.9-5.05 361.36-15.15Q361.65-16.35 362.88-17.73 364.11-19.1 365.86-20 367.61-20.9 369.4-20.9L369.4-20.9Q371.7-20.9 373.45-19.35L373.45-19.35Q373.9-20.55 374.13-20.85 374.36-21.15 374.81-21.2L374.81-21.2 377.25-21.45 377.4-21.35Q376.4-20.55 375.95-18.85L375.95-18.85Q374.4-13.05 373.83-10.3 373.25-7.55 373.25-5.45L373.25-5.45Q373.25-3.35 373.81-2.38 374.36-1.4 375.65-1.4L375.65-1.4Q377.25-1.4 379.48-2.7 381.7-4 383.7-6.33 385.7-8.65 386.75-11.55L386.75-11.55ZM364.61-1.95Q365.45-1.95 366.68-2.55 367.9-3.15 368.98-4.28 370.06-5.4 370.45-6.85L370.45-6.85 371.4-10.95Q371.61-11.95 372.11-14.18 372.61-16.4 372.9-17.6L372.9-17.6Q371.5-19 369.5-19L369.5-19Q367.95-19 366.7-18.18 365.45-17.35 364.65-16.18 363.86-15 363.65-14.1L363.65-14.1 361.65-5.2Q361.75-3.95 362.65-2.95 363.56-1.95 364.61-1.95L364.61-1.95ZM403.85-8.3Q404.1-7.95 404.1-7.45L404.1-7.45Q404.1-7.05 403.95-6.75 403.8-6.45 403.45-6L403.45-6Q402.15-4.45 399.83-2.93 397.5-1.4 394.95-0.45 392.4 0.5 390.5 0.5L390.5 0.5Q388.35 0.5 386.93-0.83 385.5-2.15 385.5-4.8L385.5-4.8Q385.5-8.15 387.9-17.4L387.9-17.4 382.6-17.2Q382.5-17.25 382.33-17.38 382.15-17.5 382.1-17.6L382.1-17.6Q382.25-17.85 382.65-18.6 383.05-19.35 383.35-19.65L383.35-19.65 388.5-19.6Q390.15-25.7 392.3-32.15L392.3-32.15Q393.2-32.85 394.6-33.68 396-34.5 396.3-34.5L396.3-34.5Q396.75-34.3 396.85-33.95L396.85-33.95Q395.95-33.6 395.45-33.02 394.95-32.45 394.45-31.15L394.45-31.15Q393-27.45 390.95-19.6L390.95-19.6 403.7-19.55 403.75-18.75Q403.75-18.35 403.6-18.2 403.45-18.05 402.9-18L402.9-18Q402.2-17.95 390.4-17.5L390.4-17.5Q388.1-8.1 388.1-4.95L388.1-4.95Q388.1-3.2 388.95-2.38 389.8-1.55 391.55-1.55L391.55-1.55Q396.65-1.55 403.85-8.3L403.85-8.3ZM428.2-54.4Q432.5-54.4 435-52.03 437.5-49.65 437.5-45.35L437.5-45.35 437.15-44.75Q436.05-48.15 433.7-49.78 431.35-51.4 428.05-51.4L428.05-51.4Q421.1-51.4 416.25-43.58 411.4-35.75 407.85-21L407.85-21 406.55-15.35 405.9-12.45Q407.95-15.35 411.1-18.07 414.25-20.8 415.85-20.8L415.85-20.8Q416.25-20.8 417.02-20.05 417.8-19.3 417.8-18.95L417.8-18.95Q416.85-16.2 415.55-10.9 414.25-5.6 414.25-4.15L414.25-4.15Q414.25-2.75 414.7-2.13 415.15-1.5 416.55-1.5L416.55-1.5Q419.05-1.5 421.4-3.4 423.75-5.3 425.47-7.73 427.2-10.15 428.1-12L428.1-12Q428.45-11.9 428.65-11.65 428.85-11.4 428.9-10.9L428.9-10.9 428.9-10.75Q428.9-10.15 428.5-9.35L428.5-9.35Q426.2-5.15 422.6-2.27 419 0.6 415.6 0.6L415.6 0.6Q413.85 0.6 412.8-0.5 411.75-1.6 411.75-3.6L411.75-3.6Q411.75-5.55 412.38-8.4 413-11.25 414.05-15.1L414.05-15.1Q414-14.85 414.6-17.15L414.6-17.15Q414.55-17.35 414.35-17.5 414.15-17.65 414-17.65L414-17.65Q413.5-17.65 411.65-16 409.8-14.35 407.9-12.05 406-9.75 405.05-7.75L405.05-7.75Q404.55-5.75 404.05-2.75L404.05-2.75Q404-2.4 403.95-2 403.9-1.6 403.8-1.2L403.8-1.2Q403.65-0.3 403.52 0.03 403.4 0.35 403.1 0.35L403.1 0.35Q402.5 0.35 401.75 0.05 401-0.25 401-0.7L401-0.7Q401-1.35 401.3-2.6L401.3-2.6 405.65-21.05Q409.3-36.65 414.95-45.53 420.6-54.4 428.2-54.4L428.2-54.4ZM446.9-11.95Q447.8-11.8 447.8-10.95L447.8-10.95Q447.8-8.95 445.22-6.28 442.65-3.6 439.15-1.68 435.65 0.25 433.3 0.25L433.3 0.25Q431.05 0.25 429.4-0.93 427.75-2.1 426.87-3.55 426-5 426-5.7L426-5.7Q426.8-8.55 427.75-13.6L427.75-13.6 428.3-16.4Q428.5-17.4 429.75-18.48 431-19.55 432.55-20.28 434.1-21 435.05-21L435.05-21Q435.8-21 436.87-20.53 437.95-20.05 438.77-19.05 439.6-18.05 439.6-16.5L439.6-16.5Q439.6-14.7 438.4-13.1 437.2-11.5 434.85-10.5 432.5-9.5 429.2-9.5L429.2-9.5 428.5-6.15Q428.5-5.7 429.02-4.65 429.55-3.6 430.72-2.75 431.9-1.9 433.7-1.9L433.7-1.9Q436.1-1.9 438.75-3.48 441.4-5.05 443.6-7.4 445.8-9.75 446.9-11.95L446.9-11.95ZM434.65-18.95Q434.05-18.95 433.1-18.45 432.15-17.95 431.37-17.2 430.6-16.45 430.45-15.8L430.45-15.8Q429.95-13.55 429.55-11.25L429.55-11.25Q433.4-11.4 435.35-12.78 437.3-14.15 437.3-15.9L437.3-15.9Q437.3-17.15 436.4-18.05 435.5-18.95 434.65-18.95L434.65-18.95ZM467.39-17.85Q467.59-17.8 467.74-17.55 467.89-17.3 467.89-17L467.89-17Q467.89-15.95 466.92-14.98 465.94-14 464.37-13.4 462.79-12.8 461.19-12.8L461.19-12.8Q458.69-12.8 456.92-14.1 455.14-15.4 454.64-17.75L454.64-17.75Q452.39-17.5 450.52-14.9 448.64-12.3 447.89-9.25L447.89-9.25Q447.79-8.75 447.14-6.18 446.49-3.6 445.89-0.1L445.89-0.1Q445.84 0.05 445.77 0.13 445.69 0.2 445.44 0.2L445.44 0.2Q445.09 0.2 444.39-0.1 443.69-0.4 443.69-0.75L443.69-0.75Q443.69-1.45 443.94-2.6L443.94-2.6Q446.99-16.7 447.89-20.05L447.89-20.05Q447.99-20.5 448.12-20.65 448.24-20.8 448.54-20.8L448.54-20.8Q448.74-20.8 449.39-20.48 450.04-20.15 450.44-19.8L450.44-19.8 449.54-16.9 449.24-15.9Q450.39-17.7 451.89-18.8 453.39-19.9 455.09-19.9L455.09-19.9Q455.59-19.9 456.09-19.8 456.59-19.7 456.79-19.55L456.79-19.55Q456.79-17.1 458.07-15.93 459.34-14.75 461.64-14.75L461.64-14.75Q463.69-14.75 465.04-15.45 466.39-16.15 467.39-17.85L467.39-17.85ZM495.49-8.3Q495.74-7.95 495.74-7.45L495.74-7.45Q495.74-7.05 495.59-6.75 495.44-6.45 495.09-6L495.09-6Q493.79-4.45 491.46-2.93 489.14-1.4 486.59-0.45 484.04 0.5 482.14 0.5L482.14 0.5Q479.99 0.5 478.56-0.83 477.14-2.15 477.14-4.8L477.14-4.8Q477.14-8.15 479.54-17.4L479.54-17.4 474.24-17.2Q474.14-17.25 473.96-17.38 473.79-17.5 473.74-17.6L473.74-17.6Q473.89-17.85 474.29-18.6 474.69-19.35 474.99-19.65L474.99-19.65 480.14-19.6Q481.79-25.7 483.94-32.15L483.94-32.15Q484.84-32.85 486.24-33.68 487.64-34.5 487.94-34.5L487.94-34.5Q488.39-34.3 488.49-33.95L488.49-33.95Q487.59-33.6 487.09-33.02 486.59-32.45 486.09-31.15L486.09-31.15Q484.64-27.45 482.59-19.6L482.59-19.6 495.34-19.55 495.39-18.75Q495.39-18.35 495.24-18.2 495.09-18.05 494.54-18L494.54-18Q493.84-17.95 482.04-17.5L482.04-17.5Q479.74-8.1 479.74-4.95L479.74-4.95Q479.74-3.2 480.59-2.38 481.44-1.55 483.19-1.55L483.19-1.55Q488.29-1.55 495.49-8.3L495.49-8.3ZM519.84-54.4Q524.14-54.4 526.64-52.03 529.14-49.65 529.14-45.35L529.14-45.35 528.79-44.75Q527.69-48.15 525.34-49.78 522.99-51.4 519.69-51.4L519.69-51.4Q512.74-51.4 507.89-43.58 503.04-35.75 499.49-21L499.49-21 498.19-15.35 497.54-12.45Q499.59-15.35 502.74-18.07 505.89-20.8 507.49-20.8L507.49-20.8Q507.89-20.8 508.66-20.05 509.44-19.3 509.44-18.95L509.44-18.95Q508.49-16.2 507.19-10.9 505.89-5.6 505.89-4.15L505.89-4.15Q505.89-2.75 506.34-2.13 506.79-1.5 508.19-1.5L508.19-1.5Q510.69-1.5 513.04-3.4 515.39-5.3 517.11-7.73 518.84-10.15 519.74-12L519.74-12Q520.09-11.9 520.29-11.65 520.49-11.4 520.54-10.9L520.54-10.9 520.54-10.75Q520.54-10.15 520.14-9.35L520.14-9.35Q517.84-5.15 514.24-2.27 510.64 0.6 507.24 0.6L507.24 0.6Q505.49 0.6 504.44-0.5 503.39-1.6 503.39-3.6L503.39-3.6Q503.39-5.55 504.01-8.4 504.64-11.25 505.69-15.1L505.69-15.1Q505.64-14.85 506.24-17.15L506.24-17.15Q506.19-17.35 505.99-17.5 505.79-17.65 505.64-17.65L505.64-17.65Q505.14-17.65 503.29-16 501.44-14.35 499.54-12.05 497.64-9.75 496.69-7.75L496.69-7.75Q496.19-5.75 495.69-2.75L495.69-2.75Q495.64-2.4 495.59-2 495.54-1.6 495.44-1.2L495.44-1.2Q495.29-0.3 495.16 0.03 495.04 0.35 494.74 0.35L494.74 0.35Q494.14 0.35 493.39 0.05 492.64-0.25 492.64-0.7L492.64-0.7Q492.64-1.35 492.94-2.6L492.94-2.6 497.29-21.05Q500.94-36.65 506.59-45.53 512.24-54.4 519.84-54.4L519.84-54.4ZM545.73-11.55Q546.38-11.55 546.38-10.25L546.38-10.25Q546.38-7.95 544.36-5.4 542.33-2.85 539.46-1.13 536.58 0.6 534.18 0.6L534.18 0.6Q532.23 0.6 531.18-0.6 530.13-1.8 529.93-3.7L529.93-3.7Q528.68-1.9 526.78-0.75 524.88 0.4 523.38 0.4L523.38 0.4Q522.08 0.4 520.81-0.48 519.53-1.35 518.73-2.63 517.93-3.9 517.88-5.05L517.88-5.05 520.33-15.15Q520.63-16.35 521.86-17.73 523.08-19.1 524.83-20 526.58-20.9 528.38-20.9L528.38-20.9Q530.68-20.9 532.43-19.35L532.43-19.35Q532.88-20.55 533.11-20.85 533.33-21.15 533.78-21.2L533.78-21.2 536.23-21.45 536.38-21.35Q535.38-20.55 534.93-18.85L534.93-18.85Q533.38-13.05 532.81-10.3 532.23-7.55 532.23-5.45L532.23-5.45Q532.23-3.35 532.78-2.38 533.33-1.4 534.63-1.4L534.63-1.4Q536.23-1.4 538.46-2.7 540.68-4 542.68-6.33 544.68-8.65 545.73-11.55L545.73-11.55ZM523.58-1.95Q524.43-1.95 525.66-2.55 526.88-3.15 527.96-4.28 529.03-5.4 529.43-6.85L529.43-6.85 530.38-10.95Q530.58-11.95 531.08-14.18 531.58-16.4 531.88-17.6L531.88-17.6Q530.48-19 528.48-19L528.48-19Q526.93-19 525.68-18.18 524.43-17.35 523.63-16.18 522.83-15 522.63-14.1L522.63-14.1 520.63-5.2Q520.73-3.95 521.63-2.95 522.53-1.95 523.58-1.95L523.58-1.95ZM567.73-12.2Q568.23-12.2 568.46-11.78 568.68-11.35 568.68-10.8L568.68-10.8Q568.68-9 566.78-6.25 564.88-3.5 561.96-1.45 559.03 0.6 556.18 0.6L556.18 0.6Q554.38 0.6 553.41-0.3 552.43-1.2 552.43-3.05L552.43-3.05Q552.43-5.6 553.83-9.98 555.23-14.35 556.38-17.25L556.38-17.25Q556.18-17.55 555.98-17.55L555.98-17.55Q555.78-17.55 555.53-17.4L555.53-17.4Q554.63-16.85 552.58-14.95 550.53-13.05 548.58-10.95 546.63-8.85 545.93-7.55L545.93-7.55Q545.13-5.4 544.93-4.83 544.73-4.25 544.53-2.95L544.53-2.95 544.08-0.7Q544.03-0.55 543.98-0.33 543.93-0.1 543.86-0.05 543.78 0 543.63 0L543.63 0Q543.18 0 542.46-0.1 541.73-0.2 541.73-0.4L541.73-0.4Q541.73-1 542.08-2.35 542.43-3.7 542.78-4.8 543.13-5.9 543.33-6.5L543.33-6.5 543.78-7.9Q545.23-12.9 545.76-15.18 546.28-17.45 546.78-20.25L546.78-20.25Q546.83-20.75 547.48-20.75L547.48-20.75Q547.93-20.75 548.51-20.53 549.08-20.3 549.18-19.9L549.18-19.9Q548.98-19 548.46-16.85 547.93-14.7 547.18-12.1L547.18-12.1Q550.08-15.35 553.21-18 556.33-20.65 557.38-20.65L557.38-20.65Q557.88-20.65 558.58-20.15 559.28-19.65 559.43-19.2L559.43-19.2Q557.83-14.9 556.38-9.83 554.93-4.75 554.93-3.15L554.93-3.15Q554.93-1.4 556.93-1.4L556.93-1.4Q559.88-1.4 562.91-4.7 565.93-8 567.73-12.2L567.73-12.2ZM606.88-11.55Q607.53-11.55 607.53-10.25L607.53-10.25Q607.53-7.95 605.5-5.4 603.48-2.85 600.6-1.13 597.73 0.6 595.33 0.6L595.33 0.6Q593.38 0.6 592.33-0.6 591.28-1.8 591.08-3.7L591.08-3.7Q589.83-1.9 587.93-0.75 586.03 0.4 584.53 0.4L584.53 0.4Q583.23 0.4 581.95-0.48 580.68-1.35 579.88-2.63 579.08-3.9 579.03-5.05L579.03-5.05 581.48-15.15Q581.78-16.35 583-17.73 584.23-19.1 585.98-20 587.73-20.9 589.53-20.9L589.53-20.9Q591.83-20.9 593.58-19.35L593.58-19.35Q594.03-20.55 594.25-20.85 594.48-21.15 594.93-21.2L594.93-21.2 597.38-21.45 597.53-21.35Q596.53-20.55 596.08-18.85L596.08-18.85Q594.53-13.05 593.95-10.3 593.38-7.55 593.38-5.45L593.38-5.45Q593.38-3.35 593.93-2.38 594.48-1.4 595.78-1.4L595.78-1.4Q597.38-1.4 599.6-2.7 601.83-4 603.83-6.33 605.83-8.65 606.88-11.55L606.88-11.55ZM584.73-1.95Q585.58-1.95 586.8-2.55 588.03-3.15 589.1-4.28 590.18-5.4 590.58-6.85L590.58-6.85 591.53-10.95Q591.73-11.95 592.23-14.18 592.73-16.4 593.03-17.6L593.03-17.6Q591.63-19 589.63-19L589.63-19Q588.08-19 586.83-18.18 585.58-17.35 584.78-16.18 583.98-15 583.78-14.1L583.78-14.1 581.78-5.2Q581.88-3.95 582.78-2.95 583.68-1.95 584.73-1.95L584.73-1.95ZM636.87-8.3Q637.12-7.95 637.12-7.45L637.12-7.45Q637.12-7.05 636.97-6.75 636.82-6.45 636.47-6L636.47-6Q635.17-4.45 632.85-2.93 630.52-1.4 627.97-0.45 625.42 0.5 623.52 0.5L623.52 0.5Q621.37 0.5 619.95-0.83 618.52-2.15 618.52-4.8L618.52-4.8Q618.52-8.15 620.92-17.4L620.92-17.4 615.62-17.2Q615.52-17.25 615.35-17.38 615.17-17.5 615.12-17.6L615.12-17.6Q615.27-17.85 615.67-18.6 616.07-19.35 616.37-19.65L616.37-19.65 621.52-19.6Q623.17-25.7 625.32-32.15L625.32-32.15Q626.22-32.85 627.62-33.68 629.02-34.5 629.32-34.5L629.32-34.5Q629.77-34.3 629.87-33.95L629.87-33.95Q628.97-33.6 628.47-33.02 627.97-32.45 627.47-31.15L627.47-31.15Q626.02-27.45 623.97-19.6L623.97-19.6 636.72-19.55 636.77-18.75Q636.77-18.35 636.62-18.2 636.47-18.05 635.92-18L635.92-18Q635.22-17.95 623.42-17.5L623.42-17.5Q621.12-8.1 621.12-4.95L621.12-4.95Q621.12-3.2 621.97-2.38 622.82-1.55 624.57-1.55L624.57-1.55Q629.67-1.55 636.87-8.3L636.87-8.3ZM661.72-17.65Q662.22-17.5 662.22-16.65L662.22-16.65Q662.22-15.4 661.22-14.08 660.22-12.75 658.49-11.9 656.77-11.05 654.72-11.05L654.72-11.05Q651.97-11.05 649.87-12.55L649.87-12.55Q649.57-11.1 649.12-9.6L649.12-9.6Q648.97-9.05 648.47-7.08 647.97-5.1 647.77-3.55L647.77-3.55Q647.42-2.75 646.37-1.83 645.32-0.9 643.87-0.25 642.42 0.4 641.02 0.4L641.02 0.4Q639.47 0.4 638.02-0.4 636.57-1.2 635.64-2.55 634.72-3.9 634.72-5.55L634.72-5.55Q635.42-7.65 635.87-9.5 636.32-11.35 636.72-13.25L636.72-13.25 637.22-15.75Q637.47-16.9 638.57-18.03 639.67-19.15 641.24-19.88 642.82-20.6 644.42-20.6L644.42-20.6Q645.02-20.6 646.12-20.4L646.12-20.4Q646.27-21.55 646.64-22 647.02-22.45 647.87-22.45L647.87-22.45Q648.37-22.45 649.02-22.3L649.02-22.3Q648.77-20.9 648.77-19.9L648.77-19.9Q648.77-17 650.52-15 652.27-13 655.27-13L655.27-13Q657.52-13 659.14-14.2 660.77-15.4 661.72-17.65L661.72-17.65ZM645.57-4.4Q645.97-6.4 646.72-8.95L646.72-8.95Q647.72-12.3 648.02-14.35L648.02-14.35Q646.92-15.75 646.52-17.75L646.52-17.75Q646.52-17.95 646.44-18.07 646.37-18.2 646.12-18.25L646.12-18.25Q645.37-18.55 644.42-18.55L644.42-18.55Q642.57-18.55 641.22-17.55 639.87-16.55 639.52-15.15L639.52-15.15Q639.37-14.55 638.42-10.45L638.42-10.45Q637.97-8.05 637.32-5.7L637.32-5.7Q637.32-3.85 638.57-2.83 639.82-1.8 641.22-1.8L641.22-1.8Q642.42-1.8 643.79-2.65 645.17-3.5 645.57-4.4L645.57-4.4ZM684.02-11.7Q684.77-11.5 684.82-10.8L684.82-10.8Q684.82-9.6 682.92-6.83 681.02-4.05 678.22-1.85 675.42 0.35 672.62 0.35L672.62 0.35Q670.72 0.35 669.64-0.78 668.57-1.9 668.57-3.8L668.57-3.8Q668.57-4.45 668.67-4.85L668.67-4.85Q667.57-3.05 665.79-1.48 664.02 0.1 662.32 0.1L662.32 0.1Q660.87 0.1 659.47-1.05 658.07-2.2 657.77-3.4L657.77-3.4Q657.72-5.65 658.39-8.55 659.07-11.45 661.47-19.8L661.47-19.8Q661.77-20.75 662.17-20.75L662.17-20.75Q662.57-20.75 663.22-20.35 663.87-19.95 663.87-19.55L663.87-19.55Q663.87-19.35 663.74-19 663.62-18.65 663.57-18.45L663.57-18.45Q660.37-7.65 660.22-4.15L660.22-4.15Q660.47-3.5 661.29-2.83 662.12-2.15 662.72-2.15L662.72-2.15Q663.37-2.15 664.52-2.93 665.67-3.7 666.97-5.48 668.27-7.25 669.37-10.1L669.37-10.1Q670.67-13.55 672.27-20.2L672.27-20.2Q672.37-20.75 672.82-20.75L672.82-20.75Q673.22-20.75 673.89-20.33 674.57-19.9 674.57-19.35L674.57-19.35Q674.57-18.9 674.12-17.55 673.67-16.2 673.57-15.85L673.57-15.85Q672.37-12.35 671.64-9.68 670.92-7 670.92-4.9L670.92-4.9Q670.92-1.65 673.17-1.65L673.17-1.65Q674.62-1.65 676.52-2.88 678.42-4.1 680.39-6.4 682.37-8.7 684.02-11.7L684.02-11.7ZM704.41-17.85Q704.61-17.8 704.76-17.55 704.91-17.3 704.91-17L704.91-17Q704.91-15.95 703.94-14.98 702.96-14 701.39-13.4 699.81-12.8 698.21-12.8L698.21-12.8Q695.71-12.8 693.94-14.1 692.16-15.4 691.66-17.75L691.66-17.75Q689.41-17.5 687.54-14.9 685.66-12.3 684.91-9.25L684.91-9.25Q684.81-8.75 684.16-6.18 683.51-3.6 682.91-0.1L682.91-0.1Q682.86 0.05 682.79 0.13 682.71 0.2 682.46 0.2L682.46 0.2Q682.11 0.2 681.41-0.1 680.71-0.4 680.71-0.75L680.71-0.75Q680.71-1.45 680.96-2.6L680.96-2.6Q684.01-16.7 684.91-20.05L684.91-20.05Q685.01-20.5 685.14-20.65 685.26-20.8 685.56-20.8L685.56-20.8Q685.76-20.8 686.41-20.48 687.06-20.15 687.46-19.8L687.46-19.8 686.56-16.9 686.26-15.9Q687.41-17.7 688.91-18.8 690.41-19.9 692.11-19.9L692.11-19.9Q692.61-19.9 693.11-19.8 693.61-19.7 693.81-19.55L693.81-19.55Q693.81-17.1 695.09-15.93 696.36-14.75 698.66-14.75L698.66-14.75Q700.71-14.75 702.06-15.45 703.41-16.15 704.41-17.85L704.41-17.85ZM705.16 0.35Q703.41 0.35 702.04-0.83 700.66-2 700.66-4.3L700.66-4.3Q701.41-6.7 703.26-14.95L703.26-14.95Q704.16-19 704.36-19.8L704.36-19.8Q705.01-20.9 706.16-20.9L706.16-20.9Q706.91-20.9 706.91-20.4L706.91-20.4Q706.56-19.15 705.94-16.43 705.31-13.7 704.96-12.15L704.96-12.15Q703.61-5.95 703.11-4.2L703.11-4.2Q703.11-3.05 703.79-2.43 704.46-1.8 705.56-1.8L705.56-1.8Q708.06-1.8 710.59-3.58 713.11-5.35 715.04-7.7 716.96-10.05 717.91-11.75L717.91-11.75Q718.21-11.65 718.31-11.43 718.41-11.2 718.41-10.65L718.41-10.65Q718.41-9.9 717.91-9.1L717.91-9.1Q715.21-4.85 711.86-2.25 708.51 0.35 705.16 0.35L705.16 0.35ZM707.46-27.15Q706.76-27.15 706.36-27.63 705.96-28.1 705.96-28.85L705.96-28.85Q705.96-29.85 706.61-30.68 707.26-31.5 708.26-31.5L708.26-31.5Q709.06-31.5 709.44-31 709.81-30.5 709.81-29.8L709.81-29.8Q709.81-28.8 709.14-27.98 708.46-27.15 707.46-27.15L707.46-27.15ZM718.06 0.65Q715.66 0.65 713.98-0.5 712.31-1.65 712.31-3.15L712.31-3.15Q712.31-3.95 712.76-4.45 713.21-4.95 713.76-5.05L713.76-5.05Q714.31-3.15 715.56-2.2 716.81-1.25 718.61-1.25L718.61-1.25Q720.86-1.25 722.21-2.53 723.56-3.8 723.56-5.5L723.56-5.5Q723.56-6.75 722.83-7.7 722.11-8.65 720.66-9.9L720.66-9.9Q719.06-11.3 718.28-12.33 717.51-13.35 717.51-14.8L717.51-14.8Q717.51-16.35 718.48-17.75 719.46-19.15 720.98-20 722.51-20.85 724.16-20.85L724.16-20.85Q725.61-20.85 726.83-20.23 728.06-19.6 728.06-18.55L728.06-18.55Q728.06-17.55 726.86-16.45L726.86-16.45Q726.21-17.6 725.26-18.23 724.31-18.85 723.26-18.85L723.26-18.85Q721.66-18.85 720.83-17.68 720.01-16.5 720.01-15.35L720.01-15.35Q720.01-14.4 720.66-13.65 721.31-12.9 722.71-11.75L722.71-11.75Q724.41-10.3 725.31-9.15 726.21-8 726.21-6.45L726.21-6.45Q726.21-4.8 725.13-3.15 724.06-1.5 722.18-0.43 720.31 0.65 718.06 0.65L718.06 0.65ZM752.61-8.3Q752.86-7.95 752.86-7.45L752.86-7.45Q752.86-7.05 752.71-6.75 752.56-6.45 752.21-6L752.21-6Q750.91-4.45 748.58-2.93 746.26-1.4 743.71-0.45 741.16 0.5 739.26 0.5L739.26 0.5Q737.11 0.5 735.68-0.83 734.26-2.15 734.26-4.8L734.26-4.8Q734.26-8.15 736.66-17.4L736.66-17.4 731.36-17.2Q731.26-17.25 731.08-17.38 730.91-17.5 730.86-17.6L730.86-17.6Q731.01-17.85 731.41-18.6 731.81-19.35 732.11-19.65L732.11-19.65 737.26-19.6Q738.91-25.7 741.06-32.15L741.06-32.15Q741.96-32.85 743.36-33.68 744.76-34.5 745.06-34.5L745.06-34.5Q745.51-34.3 745.61-33.95L745.61-33.95Q744.71-33.6 744.21-33.02 743.71-32.45 743.21-31.15L743.21-31.15Q741.76-27.45 739.71-19.6L739.71-19.6 752.46-19.55 752.51-18.75Q752.51-18.35 752.36-18.2 752.21-18.05 751.66-18L751.66-18Q750.96-17.95 739.16-17.5L739.16-17.5Q736.86-8.1 736.86-4.95L736.86-4.95Q736.86-3.2 737.71-2.38 738.56-1.55 740.31-1.55L740.31-1.55Q745.41-1.55 752.61-8.3L752.61-8.3Z" opacity="1" transform="matrix(1,0,0,1,0,0)" fill="#243cfc" class="wordmark-text-0" data-fill-palette-color="primary" id="text-0"></path></svg></g></svg></g></svg></g></svg></g><g><svg viewBox="0 0 61.220456567357 59.425870953111456" height="59.425870953111456" width="61.220456567357"><g><svg xmlns="http://www.w3.org/2000/svg" xmlns:xlink="http://www.w3.org/1999/xlink" xmlns:xodm="http://www.corel.com/coreldraw/odm/2003" xml:space="preserve" version="1.1" style="shape-rendering:geometricPrecision;text-rendering:geometricPrecision;image-rendering:optimizeQuality;" viewBox="455.69 1363.89 59045.84 57315" x="0" y="0" fill-rule="evenodd" clip-rule="evenodd" height="59.425870953111456" width="61.220456567357" class="icon-icon-0" data-fill-palette-color="accent" id="icon-0"><g fill="#ff9513" data-fill-palette-color="accent"><path class="" d="M9428.19 1363.89C11992.07 1363.89 14266.51 4635.4 15871.11 9924.69 17434.01 15076.46 18400.69 22182.42 18400.69 30021.39S17434.01 44966.32 15871.11 50118.09C14266.51 55407.38 11992.07 58678.89 9428.19 58678.89S4589.87 55407.38 2985.27 50118.09C1422.37 44966.32 455.69 37860.36 455.69 30021.39S1422.37 15076.46 2985.27 9924.69C4589.87 4635.4 6864.31 1363.89 9428.19 1363.89M15108.61 10155.95C13610.61 5218.06 11598.76 2163.89 9428.19 2163.89S5245.77 5218.06 3747.77 10155.95C2208.04 15231.35 1255.69 22254.18 1255.69 30021.39S2208.04 44811.43 3747.77 49886.83C5245.77 54824.72 7257.62 57878.89 9428.19 57878.89S13610.61 54824.72 15108.61 49886.83C16648.34 44811.43 17600.69 37788.6 17600.69 30021.39S16648.34 15231.35 15108.61 10155.95M29920.9 1363.89C31847.25 1363.89 33530.87 4647.35 34695.64 9955.94 35823.41 15095.92 36520.97 22190.52 36520.97 30021.39S35823.41 44946.86 34695.64 50086.84C33530.87 55395.43 31847.25 58678.89 29920.9 58678.89S26310.93 55395.43 25146.16 50086.84C24018.39 44946.86 23320.83 37852.26 23320.83 30021.39S24018.39 15095.92 25146.16 9955.94C26310.93 4647.35 27994.55 1363.89 29920.9 1363.89M33914.38 10124.7C32835.18 5206.12 31418.74 2163.89 29920.9 2163.89S27006.62 5206.12 25927.42 10124.7C24811.22 15211.92 24120.83 22246.09 24120.83 30021.39S24811.22 44830.86 25927.42 49918.08C27006.62 54836.66 28423.06 57878.89 29920.9 57878.89S32835.18 54836.66 33914.38 49918.08C35030.58 44830.86 35720.97 37796.69 35720.97 30021.39S35030.58 15211.92 33914.38 10124.7M46113.61 1363.89C47402.79 1363.89 48493.77 4659.28 49215.47 9987.18 49911.03 15122.17 50341.25 22205.96 50341.25 30021.39S49911.03 44920.61 49215.47 50055.6C48493.77 55383.5 47402.79 58678.89 46113.61 58678.89S43733.45 55383.5 43011.75 50055.6C42316.19 44920.61 41885.97 37836.82 41885.97 30021.39S42316.19 15122.17 43011.75 9987.18C43733.45 4659.28 44824.43 1363.89 46113.61 1363.89M48424.85 10093.44C47761.22 5194.18 46938.36 2163.89 46113.61 2163.89 45288.87 2163.89 44466 5194.18 43802.37 10093.44 43112.6 15185.65 42685.97 22230.63 42685.97 30021.39S43112.6 44857.13 43802.37 49949.34C44466 54848.6 45288.87 57878.89 46113.61 57878.89 46938.36 57878.89 47761.22 54848.6 48424.85 49949.34 49114.62 44857.13 49541.25 37812.15 49541.25 30021.39S49114.62 15185.65 48424.85 10093.44M57646.32 1363.89C58300.75 1363.89 58798.33 4671.83 59073.75 10020.01 59338.05 15152.31 59501.53 22224.96 59501.53 30021.39S59338.05 44890.47 59073.75 50022.77C58798.33 55370.95 58300.75 58678.89 57646.32 58678.89S56494.31 55370.95 56218.89 50022.77C55954.59 44890.47 55791.11 37817.82 55791.11 30021.39S55954.59 15152.31 56218.89 10020.01C56494.31 4671.83 56991.89 1363.89 57646.32 1363.89M58276.87 10060.63C58025.62 5181.63 57795.57 2163.89 57646.32 2163.89S57267.02 5181.63 57015.77 10060.63C56753.4 15155.5 56591.11 22211.65 56591.11 30021.39S56753.4 44887.28 57015.77 49982.15C57267.02 54861.15 57497.07 57878.89 57646.32 57878.89S58025.62 54861.15 58276.87 49982.15C58539.24 44887.28 58701.53 37831.13 58701.53 30021.39S58539.24 15155.5 58276.87 10060.63" fill="#ff9513" fill-rule="nonzero" data-fill-palette-color="accent"></path></g></svg></g></svg></g></svg></g><defs></defs></svg><rect width="395.52" height="50.341696698285595" fill="none" stroke="none" visibility="hidden"></rect></g></svg></g></svg>
