<svg xmlns="http://www.w3.org/2000/svg" version="1.1" xmlns:xlink="http://www.w3.org/1999/xlink" xmlns:svgjs="http://svgjs.dev/svgjs" width="2000" height="1252" viewBox="0 0 2000 1252"><g transform="matrix(1,0,0,1,-1.2121212121212466,-2.01935483870966)"><svg viewBox="0 0 396 248" data-background-color="#ffffff" preserveAspectRatio="xMidYMid meet" height="1252" width="2000" xmlns="http://www.w3.org/2000/svg" xmlns:xlink="http://www.w3.org/1999/xlink"><g id="tight-bounds" transform="matrix(1,0,0,1,0.2400000000000091,0.4000000000000057)"><svg viewBox="0 0 395.52 247.2" height="247.2" width="395.52"><g><svg></svg></g><g><svg viewBox="0 0 395.52 247.2" height="247.2" width="395.52"><g transform="matrix(1,0,0,1,75.54432,105.42284826563889)"><svg viewBox="0 0 244.43135999999998 36.3543034687222" height="36.3543034687222" width="244.43135999999998"><g><svg viewBox="0 0 244.43135999999998 36.3543034687222" height="36.3543034687222" width="244.43135999999998"><g><svg viewBox="0 0 244.43135999999998 36.3543034687222" height="36.3543034687222" width="244.43135999999998"><g id="textblocktransform"><svg viewBox="0 0 244.43135999999998 36.3543034687222" height="36.3543034687222" width="244.43135999999998" id="textblock"><g><svg viewBox="0 0 244.43135999999998 36.3543034687222" height="36.3543034687222" width="244.43135999999998"><g transform="matrix(1,0,0,1,0,0)"><svg width="244.43135999999998" viewBox="-0.05 -35.99 247.03 36.75" height="36.3543034687222" data-palette-color="#000000"><path d="M25.68-35.16L32.52-35.16 21.14-14.77 21.14 0 11.45 0 11.45-14.23-0.05-35.16 9.84-35.16 17.48-17.48 25.68-35.16ZM38.82-35.16L45.92-35.16Q45.26-33.18 44.77-31.07 44.28-28.96 43.97-26.84 43.65-24.73 43.49-22.68 43.33-20.63 43.33-18.8L43.33-18.8Q43.33-17.46 43.34-15.78 43.36-14.11 43.54-12.38 43.72-10.64 44.14-9 44.55-7.35 45.37-6.05 46.19-4.76 47.47-3.98 48.75-3.2 50.66-3.2L50.66-3.2Q52.34-3.2 53.55-3.77 54.76-4.35 55.6-5.32 56.44-6.3 56.94-7.57 57.44-8.84 57.72-10.23 58.01-11.62 58.09-13.05 58.18-14.48 58.18-15.77L58.18-15.77 58.18-35.16 67.87-35.16 67.87-17.29Q67.87-13.45 66.65-10.16 65.43-6.86 63.21-4.43 60.98-2 57.83-0.62 54.69 0.76 50.85 0.76L50.85 0.76Q48.22 0.76 45.94 0.01 43.67-0.73 41.78-2.04 39.89-3.34 38.41-5.14 36.94-6.93 35.95-9.06 34.96-11.18 34.45-13.54 33.93-15.89 33.98-18.31L33.98-18.31 33.98-18.8Q34.01-20.75 34.37-22.84 34.74-24.93 35.36-27.03 35.98-29.13 36.86-31.19 37.74-33.25 38.82-35.16L38.82-35.16ZM100.65-4.49L100.65 0 75.41 0 75.41-35.16 100.65-35.16 100.65-30.66 85.1-30.66 85.1-19.8 97.11-19.8 97.11-15.33 85.1-15.33 85.1-4.49 100.65-4.49ZM137.76-26.44L137.76-26.44 133.59-24.68Q133.1-26.27 132.28-27.59 131.46-28.91 130.33-29.85 129.19-30.79 127.75-31.31 126.31-31.84 124.6-31.84L124.6-31.84Q122.77-31.84 121.24-31.24 119.72-30.64 118.51-29.59 117.3-28.54 116.4-27.15 115.5-25.76 114.89-24.18 114.27-22.61 113.98-20.92 113.69-19.24 113.69-17.63L113.69-17.63Q113.69-15.06 114.29-12.52 114.89-9.99 116.19-7.96 117.5-5.93 119.57-4.68 121.65-3.42 124.6-3.42L124.6-3.42Q126.16-3.42 127.56-3.94 128.95-4.47 130.08-5.38 131.22-6.3 132.07-7.54 132.93-8.79 133.44-10.23L133.44-10.23 137.66-8.54Q136.74-6.23 135.12-4.48 133.51-2.73 131.45-1.59 129.39-0.44 127.03 0.13 124.68 0.71 122.28 0.71L122.28 0.71Q119.69 0.71 117.31 0.07 114.93-0.56 112.88-1.73 110.83-2.91 109.16-4.57 107.49-6.23 106.3-8.25 105.12-10.28 104.47-12.66 103.83-15.04 103.83-17.63L103.83-17.63Q103.83-20.21 104.47-22.6 105.12-24.98 106.3-27.01 107.49-29.05 109.16-30.71 110.83-32.37 112.88-33.54 114.93-34.72 117.31-35.35 119.69-35.99 122.28-35.99L122.28-35.99Q124.77-35.99 127.15-35.4 129.53-34.81 131.58-33.63 133.64-32.45 135.23-30.65 136.83-28.86 137.76-26.44ZM153.12-15.33L153.12 0 143.42 0 143.42-35.16 153.12-35.16 153.12-19.8 165.96-19.8 165.96-35.16 175.65-35.16 175.65 0 165.96 0 165.96-15.33 153.12-15.33ZM208.85-4.49L208.85 0 183.61 0 183.61-35.16 208.85-35.16 208.85-30.66 193.3-30.66 193.3-19.8 205.31-19.8 205.31-15.33 193.3-15.33 193.3-4.49 208.85-4.49ZM219.35-24.12L219.35 0 214.85 0 214.85-35.16 221.15-35.16 242.51-11.01 242.51-35.16 246.98-35.16 246.98 0 240.68 0 219.35-24.12Z" opacity="1" transform="matrix(1,0,0,1,0,0)" fill="#000000" class="wordmark-text-0" data-fill-palette-color="primary" id="text-0"></path></svg></g></svg></g></svg></g></svg></g></svg></g></svg></g><path d="M180.744 99.423L180.744 36.435 6.415 36.435 6.415 210.765 180.744 210.765 180.744 147.777 177.466 147.777 177.466 207.486 9.694 207.486 9.694 39.714 177.466 39.714 177.466 99.423Z" fill="#000000" stroke="transparent" data-fill-palette-color="tertiary"></path></svg></g><defs></defs></svg><rect width="395.52" height="247.2" fill="none" stroke="none" visibility="hidden"></rect></g></svg></g></svg>